# Blender 4.3.2
# www.blender.org
mtllib Missile_Silo2.mtl
o Cylinder.001
v 0.885554 0.583570 0.059892
v -0.000000 1.810102 -0.696878
v 0.492767 0.416347 -0.492767
v 0.492767 1.810102 -0.492767
v 0.868865 0.592750 0.137591
v 0.696878 1.810102 0.000000
v 0.492767 0.416347 0.492767
v 0.492767 1.810102 0.492767
v 0.907333 0.657484 0.000000
v -0.000000 1.810102 0.696878
v -0.492767 0.416347 0.492767
v -0.492767 1.810102 0.492767
v -0.137591 0.592750 -0.868865
v -0.696878 1.810102 0.000000
v -0.492767 0.416347 -0.492767
v -0.492767 1.810102 -0.492767
v 0.056428 3.331032 -0.056428
v 0.492767 1.962713 -0.492767
v 0.274597 3.147712 -0.274597
v 0.434308 2.646873 -0.434308
v -0.000000 1.962713 -0.696878
v 0.000000 3.331032 -0.079801
v -0.000000 2.646873 -0.614205
v -0.000000 3.147712 -0.388339
v 0.079801 3.331032 0.000000
v 0.696878 1.962713 0.000000
v 0.388339 3.147712 0.000000
v 0.614205 2.646873 0.000000
v 0.056428 3.331032 0.056428
v 0.492767 1.962713 0.492767
v 0.274597 3.147712 0.274597
v 0.434308 2.646873 0.434308
v 0.000000 3.331032 0.079801
v -0.000000 1.962713 0.696878
v -0.000000 3.147712 0.388339
v -0.000000 2.646873 0.614205
v -0.056428 3.331032 0.056428
v -0.492767 1.962713 0.492767
v -0.274597 3.147712 0.274597
v -0.434308 2.646873 0.434308
v -0.079801 3.331032 0.000000
v -0.696878 1.962713 0.000000
v -0.388339 3.147712 0.000000
v -0.614205 2.646873 0.000000
v -0.056428 3.331032 -0.056428
v -0.492767 1.962713 -0.492767
v -0.274597 3.147712 -0.274597
v -0.434308 2.646873 -0.434308
v -0.059892 0.583570 -0.885554
v 0.492767 0.802696 -0.492767
v 0.059892 0.583570 -0.885554
v 0.492767 0.802696 0.492767
v 0.137591 0.592750 -0.868865
v -0.492767 0.802696 0.492767
v 0.000000 0.657484 -0.907333
v -0.492767 0.802696 -0.492767
v -0.087767 0.416347 -0.660523
v 0.087767 0.416347 -0.660523
v -0.032125 0.416347 -0.673830
v 0.032125 0.416347 -0.673830
v 0.660523 0.416347 -0.087767
v 0.660523 0.416347 0.087767
v 0.673830 0.416347 -0.032125
v 0.673830 0.416347 0.032125
v 0.087767 0.416347 0.660523
v -0.087767 0.416347 0.660523
v 0.032125 0.416347 0.673830
v -0.032125 0.416347 0.673830
v -0.660523 0.416347 0.087767
v -0.660523 0.416347 -0.087767
v -0.673830 0.416347 0.032125
v -0.673830 0.416347 -0.032125
v 0.087767 0.802696 -0.660523
v -0.087767 0.802696 -0.660523
v -0.000000 0.897694 -0.696878
v 0.660523 0.802696 0.087767
v 0.660523 0.802696 -0.087767
v 0.696878 0.897694 0.000000
v -0.087767 0.802696 0.660523
v 0.087767 0.802696 0.660523
v -0.000000 0.897694 0.696878
v -0.660523 0.802696 -0.087767
v -0.660523 0.802696 0.087767
v -0.696878 0.897694 0.000000
v 0.885554 0.583570 -0.059892
v 0.868865 0.592750 -0.137591
v -0.000000 0.657484 0.907333
v -0.137591 0.592750 0.868865
v -0.059892 0.583570 0.885554
v 0.059892 0.583570 0.885554
v 0.137591 0.592750 0.868865
v -0.907333 0.657484 -0.000000
v -0.868865 0.592750 -0.137591
v -0.885554 0.583570 -0.059892
v -0.885554 0.583570 0.059892
v -0.868865 0.592750 0.137591
v 0.869153 0.217659 0.137660
v 0.886867 0.217659 0.057244
v 0.886867 0.217659 -0.057244
v 0.869153 0.217659 -0.137660
v -0.137660 0.217659 0.869153
v -0.057244 0.217659 0.886867
v 0.057244 0.217659 0.886867
v 0.137660 0.217659 0.869153
v -0.869153 0.217659 -0.137660
v -0.886867 0.217659 -0.057244
v -0.886867 0.217659 0.057244
v -0.869153 0.217659 0.137660
v -0.057244 0.217659 -0.886867
v -0.137660 0.217659 -0.869153
v 0.057244 0.217659 -0.886867
v 0.137660 0.217659 -0.869153
v 0.000000 0.000000 -1.000000
v 0.000000 0.200000 -1.000000
v 0.707107 0.000000 -0.707107
v 0.707107 0.200000 -0.707107
v 1.000000 0.000000 0.000000
v 1.000000 0.200000 0.000000
v 0.707107 0.000000 0.707107
v 0.707107 0.200000 0.707107
v 0.000000 0.000000 1.000000
v 0.000000 0.200000 1.000000
v -0.707107 0.000000 0.707107
v -0.707107 0.200000 0.707107
v -1.000000 0.000000 0.000000
v -1.000000 0.200000 0.000000
v -0.707107 0.000000 -0.707107
v -0.707107 0.200000 -0.707107
vn 0.7794 0.1991 0.5940
vn 0.9708 0.2398 -0.0000
vn 1.0000 -0.0000 -0.0000
vn 0.7071 -0.0000 0.7071
vn -0.5940 0.1991 0.7794
vn -0.0000 0.2398 0.9708
vn -0.0000 -0.0000 1.0000
vn -0.7071 -0.0000 0.7071
vn 0.7071 -0.0000 -0.7071
vn 0.7794 0.1991 -0.5940
vn -0.7794 0.1991 -0.5940
vn -0.9708 0.2398 -0.0000
vn -1.0000 -0.0000 -0.0000
vn -0.7071 -0.0000 -0.7071
vn 0.5940 0.1991 0.7794
vn 0.8416 0.1693 -0.5128
vn 0.1337 -0.0766 -0.9881
vn -0.0000 0.3561 -0.9344
vn -0.9982 0.0592 -0.0000
vn -0.7059 0.0592 -0.7059
vn -0.7794 0.1991 0.5940
vn 0.5940 0.1991 -0.7794
vn -0.0000 0.2398 -0.9708
vn -0.0000 -0.0000 -1.0000
vn -0.5490 -0.6303 -0.5490
vn -0.5940 0.1991 -0.7794
vn -0.5348 -0.8446 0.0266
vn 0.7059 0.0592 -0.7059
vn 0.9982 0.0592 -0.0000
vn -0.0000 0.0592 0.9982
vn -0.7059 0.0592 0.7059
vn -0.0000 0.0592 -0.9982
vn 0.7059 0.0592 0.7059
vn 0.2291 0.9461 -0.2291
vn -0.0000 0.9461 -0.3240
vn -0.2291 0.9461 -0.2291
vn -0.3240 0.9461 -0.0000
vn -0.2291 0.9461 0.2291
vn -0.0000 0.9461 0.3240
vn 0.2291 0.9461 0.2291
vn 0.3240 0.9461 -0.0000
vn -0.0000 0.2595 -0.9657
vn 0.6829 0.2595 -0.6829
vn -0.0000 0.6316 -0.7753
vn 0.5482 0.6316 -0.5482
vn 0.9657 0.2595 -0.0000
vn 0.7753 0.6316 -0.0000
vn 0.6829 0.2595 0.6829
vn 0.5482 0.6316 0.5482
vn -0.0000 0.2595 0.9657
vn -0.0000 0.6316 0.7753
vn -0.6829 0.2595 0.6829
vn -0.5482 0.6316 0.5482
vn -0.9657 0.2595 -0.0000
vn -0.7753 0.6316 -0.0000
vn -0.6829 0.2595 -0.6829
vn -0.5482 0.6316 -0.5482
vn 0.5490 -0.6303 -0.5490
vn -0.0266 -0.8446 -0.5348
vn 0.0266 -0.8446 -0.5348
vn -0.5490 -0.6303 0.5490
vn 0.0266 -0.8446 0.5348
vn -0.5348 -0.8446 -0.0266
vn 0.5490 -0.6303 0.5490
vn 0.5348 -0.8446 -0.0266
vn -0.0266 -0.8446 0.5348
vn 0.0433 -0.9217 0.3854
vn -0.0433 -0.9217 0.3854
vn 0.5348 -0.8446 0.0266
vn -0.3854 -0.9217 0.0433
vn -0.3854 -0.9217 -0.0433
vn -0.0433 -0.9217 -0.3854
vn 0.0433 -0.9217 -0.3854
vn 0.3854 -0.9217 -0.0433
vn 0.3854 -0.9217 0.0433
vn -0.0000 0.3561 0.9344
vn 0.8416 0.1693 0.5128
vn 0.4503 -0.8918 -0.0433
vn 0.4503 -0.8918 0.0433
vn -0.8416 0.1693 -0.5128
vn -0.4503 -0.8918 -0.0433
vn -0.2089 -0.7678 -0.6057
vn 0.2089 -0.7678 0.6057
vn -0.5128 0.1693 -0.8416
vn 0.6057 -0.7678 -0.2089
vn 0.5128 0.1693 0.8416
vn 0.6057 -0.7678 0.2089
vn -0.8416 0.1693 0.5128
vn 0.0433 -0.8918 -0.4503
vn 0.0433 -0.8918 0.4503
vn -0.0433 -0.8918 -0.4503
vn -0.9344 0.3561 -0.0000
vn -0.5128 0.1693 0.8416
vn -0.0433 -0.8918 0.4503
vn 0.9344 0.3561 -0.0000
vn 0.5128 0.1693 -0.8416
vn -0.6057 -0.7678 -0.2089
vn -0.6057 -0.7678 0.2089
vn -0.2089 -0.7678 0.6057
vn 0.2089 -0.7678 -0.6057
vn -0.1337 -0.0766 -0.9881
vn 0.9881 -0.0766 0.1337
vn 0.9881 -0.0766 -0.1337
vn -0.1337 -0.0766 0.9881
vn 0.1337 -0.0766 0.9881
vn -0.9881 -0.0766 -0.1337
vn -0.9881 -0.0766 0.1337
vn -0.4503 -0.8918 0.0433
vn -0.0000 1.0000 -0.0000
vn -0.0000 -1.0000 -0.0000
vt 0.349812 0.706664
vt 0.363097 0.704785
vt 0.490690 0.704785
vt 0.490690 0.715335
vt 0.349812 0.715335
vt 0.349812 0.745341
vt 0.363097 0.740805
vt 0.490690 0.740805
vt 0.490690 0.766274
vt 0.349812 0.766274
vt 0.349812 0.774945
vt 0.363097 0.776824
vt 0.490690 0.776824
vt 0.349812 0.736268
vt 0.320453 0.733693
vt 0.319169 0.737709
vt 0.329505 0.740805
vt 0.512031 0.776824
vt 0.512031 0.766274
vt 0.295784 0.766274
vt 0.295784 0.745341
vt 0.512031 0.715335
vt 0.512031 0.704785
vt 0.512031 0.740805
vt 0.703380 0.737888
vt 0.703380 0.740805
vt 0.703380 0.743721
vt 0.703380 0.744929
vt 0.703380 0.736680
vt 0.441795 0.372178
vt 0.552004 0.372178
vt 0.552004 0.525108
vt 0.441795 0.525108
vt 0.607706 0.718357
vt 0.607706 0.740805
vt 0.677744 0.740805
vt 0.677744 0.726612
vt 0.607706 0.709058
vt 0.677744 0.720733
vt 0.607706 0.763253
vt 0.677744 0.754998
vt 0.607706 0.772551
vt 0.677744 0.760877
vt 0.295784 0.715335
vt 0.295784 0.706664
vt 0.295784 0.774945
vt 0.295784 0.736268
vt 0.295784 0.742465
vt 0.295784 0.739144
vt 0.295784 0.705976
vt 0.295784 0.775633
vt 0.267999 0.694965
vt 0.320453 0.747916
vt 0.267999 0.786644
vt 0.267999 0.785729
vt 0.267999 0.695881
vt 0.320453 0.785714
vt 0.267999 0.733690
vt 0.320453 0.695896
vt 0.267999 0.733690
vt 0.267999 0.737846
vt 0.267999 0.737846
vt 0.267999 0.743764
vt 0.329505 0.787702
vt 0.267999 0.743764
vt 0.329505 0.693907
vt 0.267999 0.747920
vt 0.267999 0.747920
vt 0.319169 0.743900
vt 0.319169 0.695033
vt 0.319169 0.743900
vt 0.319169 0.737709
vt 0.319169 0.786576
vt 0.325789 0.722276
vt 0.516890 0.722276
vt 0.516890 0.685728
vt 0.325789 0.685728
vt 0.516890 0.670589
vt 0.325789 0.670589
vt 0.516890 0.758825
vt 0.325789 0.758825
vt 0.516890 0.773963
vt 0.325789 0.773963
s 1
usemtl Cylinder.001
f 76/1/1 78/2/2 6/3/3 8/4/4 52/5/4
f 79/6/5 81/7/6 10/8/7 12/9/8 54/10/8
f 50/5/9 4/4/9 6/3/3 78/2/2 77/1/10
f 82/11/11 84/12/12 14/13/13 16/9/14 56/10/14
f 52/5/4 8/4/4 10/8/7 81/7/6 80/14/15
f 53/15/16 51/16/17 55/17/18
f 16/9/14 14/13/13 42/18/19 46/19/20
f 54/10/8 12/9/8 14/13/13 84/12/12 83/11/21
f 73/14/22 75/7/23 2/8/24 4/4/9 50/5/9
f 15/20/25 56/10/14 74/6/26 57/21/27
f 6/3/3 4/4/9 18/22/28 26/23/29
f 12/9/8 10/8/7 34/24/30 38/19/31
f 2/8/24 16/9/14 46/19/20 21/24/32
f 14/13/13 12/9/8 38/19/31 42/18/19
f 8/4/4 6/3/3 26/23/29 30/22/33
f 17/25/34 22/26/35 45/27/36 41/28/37 37/27/38 33/26/39 29/25/40 25/29/41
f 10/8/7 8/4/4 30/22/33 34/24/30
f 18/30/28 21/31/32 23/32/42 20/33/43
f 20/34/43 23/35/42 24/36/44 19/37/45
f 19/37/45 24/36/44 22/26/35 17/25/34
f 26/30/29 18/31/28 20/32/43 28/33/46
f 28/38/46 20/34/43 19/37/45 27/39/47
f 27/39/47 19/37/45 17/25/34 25/29/41
f 30/30/33 26/31/29 28/32/46 32/33/48
f 32/34/48 28/38/46 27/39/47 31/37/49
f 31/37/49 27/39/47 25/29/41 29/25/40
f 34/30/30 30/31/33 32/32/48 36/33/50
f 36/35/50 32/34/48 31/37/49 35/36/51
f 35/36/51 31/37/49 29/25/40 33/26/39
f 38/30/31 34/31/30 36/32/50 40/33/52
f 40/40/52 36/35/50 35/36/51 39/41/53
f 39/41/53 35/36/51 33/26/39 37/27/38
f 42/30/19 38/31/31 40/32/52 44/33/54
f 44/42/54 40/40/52 39/41/53 43/43/55
f 43/43/55 39/41/53 37/27/38 41/28/37
f 46/30/20 42/31/19 44/32/54 48/33/56
f 48/40/56 44/42/54 43/43/55 47/41/57
f 47/41/57 43/43/55 41/28/37 45/27/36
f 21/30/32 46/31/20 48/32/56 23/33/42
f 23/35/42 48/40/56 47/41/57 24/36/44
f 24/36/44 47/41/57 45/27/36 22/26/35
f 4/4/9 2/8/24 21/24/32 18/22/28
f 3/44/58 50/5/9 77/1/10 61/45/59
f 56/10/14 16/9/14 2/8/24 75/7/23 74/6/26
f 70/46/60 82/11/11 56/10/14 15/20/25
f 11/20/61 54/10/8 83/11/21 69/46/62
f 66/21/63 79/6/5 54/10/8 11/20/61
f 7/44/64 52/5/4 80/14/15 65/47/65
f 62/45/66 76/1/1 52/5/4 7/44/64
f 57/21/27 59/48/67 60/49/68 58/47/69 3/44/58 61/45/59 63/50/70 64/50/71 62/45/66 7/44/64 65/47/65 67/49/72 68/48/73 66/21/63 11/20/61 69/46/62 71/51/74 72/51/75 70/46/60 15/20/25
f 80/14/15 81/7/6 87/17/76 91/15/77
f 64/50/71 63/50/70 99/52/78 98/52/79
f 74/6/26 75/7/23 55/17/18 13/53/80
f 70/46/60 72/51/75 106/54/81 105/55/82
f 62/45/66 64/50/71 98/52/79 97/56/83
f 82/11/11 70/46/60 105/55/82 93/57/84
f 73/14/22 58/47/69 112/58/85 53/15/16
f 76/1/1 62/45/66 97/56/83 5/59/86
f 65/47/65 80/14/15 91/15/77 104/60/87
f 81/7/6 79/6/5 88/53/88 87/17/76
f 58/47/69 60/49/68 111/61/89 112/58/85
f 75/7/23 73/14/22 53/15/16 55/17/18
f 67/49/72 65/47/65 104/60/87 103/62/90
f 60/49/68 59/48/67 109/63/91 111/61/89
f 83/11/21 84/12/12 92/64/92 96/57/93
f 68/48/73 67/49/72 103/62/90 102/65/94
f 77/1/10 78/2/2 9/66/95 86/59/96
f 57/21/27 74/6/26 13/53/80 110/67/97
f 66/21/63 68/48/73 102/65/94 101/68/98
f 59/48/67 57/21/27 110/67/97 109/63/91
f 79/6/5 66/21/63 101/68/98 88/53/88
f 69/46/62 83/11/21 96/57/93 108/55/99
f 84/12/12 82/11/11 93/57/84 92/64/92
f 61/45/59 77/1/10 86/59/96 100/56/100
f 58/47/69 73/14/22 50/5/9 3/44/58
f 51/16/17 49/69/101 55/17/18
f 49/69/101 13/53/80 55/17/18
f 5/59/86 1/70/102 9/66/95
f 1/70/102 85/70/103 9/66/95
f 85/70/103 86/59/96 9/66/95
f 88/53/88 89/71/104 87/17/76
f 89/71/104 90/72/105 87/17/76
f 90/72/105 91/15/77 87/17/76
f 93/57/84 94/73/106 92/64/92
f 94/73/106 95/73/107 92/64/92
f 95/73/107 96/57/93 92/64/92
f 5/59/86 97/56/83 98/52/79 1/70/102
f 1/70/102 98/52/79 99/52/78 85/70/103
f 85/70/103 99/52/78 100/56/100 86/59/96
f 88/53/88 101/68/98 102/65/94 89/71/104
f 89/71/104 102/65/94 103/62/90 90/72/105
f 90/72/105 103/62/90 104/60/87 91/15/77
f 93/57/84 105/55/82 106/54/81 94/73/106
f 94/73/106 106/54/81 107/54/108 95/73/107
f 95/73/107 107/54/108 108/55/99 96/57/93
f 110/67/97 13/53/80 49/69/101 109/63/91
f 109/63/91 49/69/101 51/16/17 111/61/89
f 111/61/89 51/16/17 53/15/16 112/58/85
f 72/51/75 71/51/74 107/54/108 106/54/81
f 63/50/70 61/45/59 100/56/100 99/52/78
f 71/51/74 69/46/62 108/55/99 107/54/108
f 78/2/2 76/1/1 5/59/86 9/66/95
f 113/74/24 114/75/24 116/76/9 115/77/9
f 115/77/9 116/76/9 118/78/3 117/79/3
f 117/79/3 118/78/3 120/76/4 119/77/4
f 119/77/4 120/76/4 122/75/7 121/74/7
f 121/74/7 122/75/7 124/80/8 123/81/8
f 123/81/8 124/80/8 126/82/13 125/83/13
f 116/76/109 114/75/109 128/80/109 126/82/109 124/80/109 122/75/109 120/76/109 118/78/109
f 125/83/13 126/82/13 128/80/14 127/81/14
f 127/81/14 128/80/14 114/75/24 113/74/24
f 113/74/110 115/77/110 117/79/110 119/77/110 121/74/110 123/81/110 125/83/110 127/81/110
