# Blender 4.3.2
# www.blender.org
mtllib Missile_Silo.mtl
o Cylinder
v -0.288771 0.001418 -0.901854
v -0.162763 0.001418 -0.889443
v -0.041597 0.001418 -0.852688
v 0.070070 0.001418 -0.793000
v 0.167947 0.001418 -0.712675
v 0.248273 0.001418 -0.614798
v 0.307960 0.001418 -0.503131
v 0.344715 0.001418 -0.381965
v 0.357126 0.001418 -0.255956
v 0.344715 0.001418 -0.129948
v 0.307960 0.001418 -0.008782
v 0.248273 0.001418 0.102885
v 0.167947 0.001418 0.200762
v 0.070070 0.001418 0.281088
v -0.041597 0.001418 0.340775
v -0.162763 0.001418 0.377530
v -0.288771 0.001418 0.389941
v -0.414780 0.001418 0.377530
v -0.535946 0.001418 0.340775
v -0.647613 0.001418 0.281088
v -0.745490 0.001418 0.200762
v -0.825815 0.001418 0.102885
v -0.885503 0.001418 -0.008782
v -0.922258 0.001418 -0.129948
v -0.934669 0.001418 -0.255956
v -0.922258 0.001418 -0.381965
v -0.885503 0.001418 -0.503131
v -0.825815 0.001418 -0.614798
v -0.745490 0.001418 -0.712675
v -0.647613 0.001418 -0.793000
v -0.535946 0.001418 -0.852688
v -0.414780 0.001418 -0.889443
v -0.288771 0.648103 -0.557351
v -0.288771 0.132436 -0.882795
v -0.288771 0.585293 -0.647447
v -0.288771 0.410998 -0.781149
v -0.229972 0.648103 -0.551560
v -0.166481 0.132436 -0.870751
v -0.212395 0.585293 -0.639925
v -0.186311 0.410998 -0.771058
v -0.173432 0.648103 -0.534409
v -0.048890 0.132436 -0.835080
v -0.138954 0.585293 -0.617647
v -0.087789 0.410998 -0.741171
v -0.121325 0.648103 -0.506557
v 0.059482 0.132436 -0.777154
v -0.071270 0.585293 -0.581469
v 0.003010 0.410998 -0.692638
v -0.075653 0.648103 -0.469075
v 0.154471 0.132436 -0.699198
v -0.011945 0.585293 -0.532782
v 0.082596 0.410998 -0.627324
v -0.038170 0.648103 -0.423403
v 0.232426 0.132436 -0.604210
v 0.036742 0.585293 -0.473457
v 0.147911 0.410998 -0.547738
v -0.010319 0.648103 -0.371295
v 0.290352 0.132436 -0.495837
v 0.072919 0.585293 -0.405774
v 0.196444 0.410998 -0.456939
v 0.006833 0.648103 -0.314756
v 0.326023 0.132436 -0.378247
v 0.095197 0.585293 -0.332333
v 0.226330 0.410998 -0.358416
v 0.012624 0.648103 -0.255956
v 0.338068 0.132436 -0.255956
v 0.102720 0.585293 -0.255956
v 0.236421 0.410998 -0.255956
v 0.006833 0.648103 -0.197157
v 0.326023 0.132436 -0.133666
v 0.095197 0.585293 -0.179580
v 0.226330 0.410998 -0.153496
v -0.010319 0.648103 -0.140618
v 0.290352 0.132436 -0.016075
v 0.072919 0.585293 -0.106139
v 0.196444 0.410998 -0.054974
v -0.038170 0.648103 -0.088510
v 0.232426 0.132436 0.092297
v 0.036742 0.585293 -0.038456
v 0.147911 0.410998 0.035825
v -0.075653 0.648103 -0.042838
v 0.154471 0.132436 0.187286
v -0.011945 0.585293 0.020870
v 0.082596 0.410998 0.115411
v -0.121325 0.648103 -0.005356
v 0.059482 0.132436 0.265241
v -0.071270 0.585293 0.069556
v 0.003010 0.410998 0.180725
v -0.173432 0.648103 0.022496
v -0.048890 0.132436 0.323167
v -0.138954 0.585293 0.105734
v -0.087789 0.410998 0.229258
v -0.229972 0.648103 0.039647
v -0.166481 0.132436 0.358838
v -0.212395 0.585293 0.128012
v -0.186311 0.410998 0.259145
v -0.288771 0.648103 0.045439
v -0.288771 0.132436 0.370883
v -0.288771 0.585293 0.135535
v -0.288771 0.410998 0.269236
v -0.347571 0.648103 0.039647
v -0.411062 0.132436 0.358838
v -0.365147 0.585293 0.128012
v -0.391231 0.410998 0.259145
v -0.404110 0.648103 0.022496
v -0.528652 0.132436 0.323167
v -0.438588 0.585293 0.105734
v -0.489754 0.410998 0.229258
v -0.456218 0.648103 -0.005356
v -0.637024 0.132436 0.265241
v -0.506272 0.585293 0.069556
v -0.580553 0.410998 0.180725
v -0.501890 0.648103 -0.042838
v -0.732013 0.132436 0.187286
v -0.565597 0.585293 0.020870
v -0.660139 0.410998 0.115411
v -0.539372 0.648103 -0.088510
v -0.809969 0.132436 0.092297
v -0.614284 0.585293 -0.038456
v -0.725453 0.410998 0.035825
v -0.567224 0.648103 -0.140618
v -0.867895 0.132436 -0.016075
v -0.650462 0.585293 -0.106139
v -0.773986 0.410998 -0.054974
v -0.584375 0.648103 -0.197157
v -0.903566 0.132436 -0.133666
v -0.672740 0.585293 -0.179580
v -0.803873 0.410998 -0.153496
v -0.590166 0.648103 -0.255956
v -0.915610 0.132436 -0.255956
v -0.680262 0.585293 -0.255956
v -0.813964 0.410998 -0.255956
v -0.584375 0.648103 -0.314756
v -0.903566 0.132436 -0.378247
v -0.672740 0.585293 -0.332333
v -0.803873 0.410998 -0.358416
v -0.567224 0.648103 -0.371295
v -0.867895 0.132436 -0.495837
v -0.650462 0.585293 -0.405774
v -0.773986 0.410998 -0.456939
v -0.539372 0.648103 -0.423403
v -0.809969 0.132436 -0.604210
v -0.614284 0.585293 -0.473457
v -0.725453 0.410998 -0.547738
v -0.501890 0.648103 -0.469075
v -0.732013 0.132436 -0.699198
v -0.565597 0.585293 -0.532782
v -0.660139 0.410998 -0.627324
v -0.456218 0.648103 -0.506557
v -0.637024 0.132436 -0.777154
v -0.506272 0.585293 -0.581469
v -0.580553 0.410998 -0.692638
v -0.404110 0.648103 -0.534409
v -0.528652 0.132436 -0.835080
v -0.438588 0.585293 -0.617647
v -0.489754 0.410998 -0.741171
v -0.347571 0.648103 -0.551560
v -0.411062 0.132436 -0.870751
v -0.365147 0.585293 -0.639925
v -0.391231 0.410998 -0.771058
v -0.288771 0.001418 -0.920630
v -0.159100 0.001418 -0.907859
v -0.034412 0.001418 -0.870035
v 0.080502 0.001418 -0.808613
v 0.181224 0.001418 -0.725952
v 0.263885 0.001418 -0.625229
v 0.325307 0.001418 -0.510316
v 0.363131 0.001418 -0.385628
v 0.375903 0.001418 -0.255956
v 0.363131 0.001418 -0.126285
v 0.325307 0.001418 -0.001597
v 0.263885 0.001418 0.113317
v 0.181224 0.001418 0.214039
v 0.080502 0.001418 0.296700
v -0.034412 0.001418 0.358122
v -0.159100 0.001418 0.395946
v -0.288771 0.001418 0.408718
v -0.418443 0.001418 0.395946
v -0.543131 0.001418 0.358122
v -0.658044 0.001418 0.296700
v -0.758767 0.001418 0.214039
v -0.841428 0.001418 0.113317
v -0.902850 0.001418 -0.001597
v -0.940674 0.001418 -0.126285
v -0.953445 0.001418 -0.255956
v -0.940674 0.001418 -0.385628
v -0.902850 0.001418 -0.510316
v -0.841428 0.001418 -0.625229
v -0.758767 0.001418 -0.725952
v -0.658044 0.001418 -0.808613
v -0.543131 0.001418 -0.870035
v -0.418443 0.001418 -0.907859
v -0.162818 0.161088 -0.889167
v -0.288771 0.161088 -0.901572
v -0.041705 0.161088 -0.852428
v 0.069914 0.161088 -0.792766
v 0.167748 0.161088 -0.712476
v 0.248039 0.161088 -0.614641
v 0.307700 0.161088 -0.503023
v 0.344439 0.161088 -0.381910
v 0.356844 0.161088 -0.255956
v 0.344439 0.161088 -0.130003
v 0.307700 0.161088 -0.008890
v 0.248039 0.161088 0.102729
v 0.167748 0.161088 0.200563
v 0.069914 0.161088 0.280854
v -0.041705 0.161088 0.340515
v -0.162818 0.161088 0.377254
v -0.288771 0.161088 0.389659
v -0.414725 0.161088 0.377254
v -0.535838 0.161088 0.340515
v -0.647456 0.161088 0.280854
v -0.745291 0.161088 0.200563
v -0.825581 0.161088 0.102729
v -0.885242 0.161088 -0.008890
v -0.921982 0.161088 -0.130003
v -0.934387 0.161088 -0.255956
v -0.921982 0.161088 -0.381910
v -0.885242 0.161088 -0.503023
v -0.825581 0.161088 -0.614641
v -0.745291 0.161088 -0.712476
v -0.647456 0.161088 -0.792766
v -0.535838 0.161088 -0.852428
v -0.414725 0.161088 -0.889167
v 0.423349 0.009769 -0.417880
v 0.388455 -0.026887 -0.382985
v 0.522668 1.772155 -0.517199
v 0.503177 1.791645 -0.497709
v 0.423350 0.009769 -0.872841
v 0.388453 -0.026886 -0.907735
v 0.522668 1.772155 -0.773522
v 0.503178 1.791646 -0.793012
v 0.878309 0.009769 -0.417880
v 0.913206 -0.026886 -0.382985
v 0.778991 1.772155 -0.517199
v 0.798481 1.791646 -0.497708
v 0.878310 0.009769 -0.872840
v 0.913204 -0.026887 -0.907736
v 0.778991 1.772155 -0.773522
v 0.798482 1.791645 -0.793012
v 0.444059 0.553863 -0.438590
v 0.405066 0.553428 -0.399596
v 0.479199 1.100599 -0.473730
v 0.446739 1.100049 -0.441269
v 0.512014 1.503661 -0.506545
v 0.485648 1.503262 -0.480179
v 0.512014 1.503661 -0.784176
v 0.485648 1.503262 -0.810542
v 0.479199 1.100599 -0.816991
v 0.446739 1.100049 -0.849451
v 0.444059 0.553863 -0.852131
v 0.405066 0.553428 -0.891124
v 0.789645 1.503661 -0.784176
v 0.816011 1.503262 -0.810542
v 0.822460 1.100599 -0.816991
v 0.854920 1.100049 -0.849451
v 0.857600 0.553863 -0.852131
v 0.896593 0.553428 -0.891124
v 0.789645 1.503661 -0.506545
v 0.816011 1.503262 -0.480179
v 0.822460 1.100599 -0.473730
v 0.854920 1.100049 -0.441269
v 0.857600 0.553863 -0.438590
v 0.896593 0.553428 -0.399596
v 0.512923 1.742923 -0.524333
v 0.500268 1.524279 -0.749643
v 0.500802 1.525155 -0.513578
v 0.529802 1.742923 -0.783267
v 0.755112 1.524279 -0.795922
v 0.519047 1.525155 -0.795387
v 0.788736 1.742923 -0.766388
v 0.801391 1.524279 -0.541078
v 0.800856 1.525155 -0.777143
v 0.771857 1.742923 -0.507454
v 0.546547 1.524279 -0.494798
v 0.782612 1.525155 -0.495333
v 0.823404 -0.008831 -0.860336
v 0.435859 -0.008790 -0.472789
v 0.435862 -0.008759 -0.860327
v 0.553673 1.781900 -0.766388
v 0.771857 1.781900 -0.548203
v 0.771857 1.781900 -0.766388
v 0.853798 0.462916 -0.414292
v 0.481872 0.023396 -0.400718
v 0.865506 0.023587 -0.400745
v 0.821302 1.023633 -0.451288
v 0.495569 0.592206 -0.421198
v 0.847559 0.593247 -0.421395
v 0.788214 1.451777 -0.488956
v 0.522422 1.131649 -0.459967
v 0.813356 1.132914 -0.460333
v 0.881898 0.462916 -0.848329
v 0.895472 0.023396 -0.476403
v 0.895445 0.023587 -0.860036
v 0.844902 1.023634 -0.815832
v 0.874992 0.592206 -0.490100
v 0.874794 0.593247 -0.842090
v 0.807234 1.451777 -0.782745
v 0.836223 1.131649 -0.516953
v 0.835856 1.132914 -0.807887
v 0.447861 0.462916 -0.876428
v 0.819786 0.023396 -0.890003
v 0.436153 0.023587 -0.889976
v 0.480357 1.023633 -0.839433
v 0.806090 0.592206 -0.869523
v 0.454100 0.593247 -0.869325
v 0.513445 1.451777 -0.801765
v 0.779237 1.131649 -0.830754
v 0.488303 1.132914 -0.830387
v 0.419761 0.462916 -0.442392
v 0.406187 0.023396 -0.814317
v 0.406214 0.023587 -0.430684
v 0.456757 1.023634 -0.474888
v 0.426667 0.592206 -0.800620
v 0.426865 0.593247 -0.448631
v 0.494425 1.451777 -0.507976
v 0.465436 1.131649 -0.773768
v 0.465803 1.132914 -0.482834
v 0.512923 1.765021 -0.550118
v 0.512923 1.765021 -0.766388
v 0.502849 1.552064 -0.775345
v 0.555587 1.765021 -0.783267
v 0.771857 1.765021 -0.783267
v 0.780814 1.552064 -0.793341
v 0.788736 1.765021 -0.740603
v 0.788736 1.765021 -0.524333
v 0.798810 1.552064 -0.515375
v 0.746072 1.765021 -0.507454
v 0.529802 1.765021 -0.507454
v 0.520844 1.552064 -0.497380
v 0.865799 -0.008790 -0.817932
v 0.865796 -0.008759 -0.430394
v 0.478254 -0.008831 -0.430385
v 0.529802 1.781900 -0.742517
v 0.529802 1.781900 -0.524333
v 0.747986 1.781900 -0.524333
v 0.809041 0.514245 -0.416936
v 0.450186 0.514268 -0.416940
v 0.436746 0.067499 -0.401420
v 0.782835 1.067388 -0.454772
v 0.483425 1.067418 -0.454780
v 0.456729 0.644163 -0.424389
v 0.757427 1.481377 -0.491456
v 0.515652 1.481400 -0.491468
v 0.491318 1.173655 -0.463765
v 0.879254 0.514245 -0.803572
v 0.879250 0.514268 -0.444717
v 0.894770 0.067499 -0.431277
v 0.841418 1.067388 -0.777366
v 0.841410 1.067418 -0.477956
v 0.871801 0.644163 -0.451260
v 0.804734 1.481377 -0.751958
v 0.804722 1.481400 -0.510182
v 0.832424 1.173655 -0.485849
v 0.492617 0.514245 -0.873785
v 0.851472 0.514268 -0.873781
v 0.864912 0.067499 -0.889301
v 0.518823 1.067388 -0.835949
v 0.818234 1.067418 -0.835941
v 0.844930 0.644163 -0.866332
v 0.544232 1.481377 -0.799265
v 0.786007 1.481400 -0.799252
v 0.810341 1.173655 -0.826955
v 0.422405 0.514245 -0.487148
v 0.422409 0.514268 -0.846003
v 0.406889 0.067499 -0.859443
v 0.460241 1.067388 -0.513354
v 0.460249 1.067418 -0.812765
v 0.429858 0.644163 -0.839460
v 0.496925 1.481377 -0.538763
v 0.496937 1.481400 -0.780538
v 0.469235 1.173655 -0.804872
v 0.567042 0.171392 0.303339
v 0.567042 0.511181 0.303339
v 0.637818 0.171392 0.317418
v 0.637818 0.511181 0.317418
v 0.697820 0.171392 0.357509
v 0.697820 0.511181 0.357509
v 0.737911 0.171392 0.417510
v 0.737911 0.511181 0.417510
v 0.751989 0.171392 0.488286
v 0.751989 0.511181 0.488286
v 0.737911 0.171392 0.559063
v 0.737911 0.511181 0.559063
v 0.697820 0.171392 0.619064
v 0.697820 0.511181 0.619064
v 0.637818 0.171392 0.659155
v 0.637818 0.511181 0.659155
v 0.567042 0.171392 0.673234
v 0.567042 0.511181 0.673234
v 0.496266 0.171392 0.659155
v 0.496266 0.511181 0.659155
v 0.436265 0.171392 0.619064
v 0.436265 0.511181 0.619064
v 0.396173 0.171392 0.559063
v 0.396173 0.511181 0.559063
v 0.382095 0.171392 0.488286
v 0.382095 0.511181 0.488286
v 0.396173 0.171392 0.417510
v 0.396173 0.511181 0.417510
v 0.436265 0.171392 0.357509
v 0.436265 0.511181 0.357509
v 0.496266 0.171392 0.317418
v 0.496266 0.511181 0.317418
v 0.567042 1.563994 0.311251
v 0.634791 1.563994 0.324727
v 0.692225 1.563994 0.363104
v 0.730601 1.563994 0.420538
v 0.744077 1.563994 0.488286
v 0.730601 1.563994 0.556035
v 0.692225 1.563994 0.613469
v 0.634791 1.563994 0.651846
v 0.567042 1.563994 0.665322
v 0.499294 1.563994 0.651846
v 0.441859 1.563994 0.613469
v 0.403483 1.563994 0.556035
v 0.390007 1.563994 0.488286
v 0.403483 1.563994 0.420538
v 0.441859 1.563994 0.363104
v 0.499294 1.563994 0.324727
v 0.567042 1.792449 0.350807
v 0.567042 1.993410 0.466217
v 0.567042 1.891882 0.372618
v 0.567042 1.962203 0.413928
v 0.575488 1.993410 0.467897
v 0.619653 1.792449 0.361272
v 0.595498 1.962203 0.419588
v 0.611306 1.891882 0.381423
v 0.582648 1.993410 0.472681
v 0.664255 1.792449 0.391073
v 0.619622 1.962203 0.435707
v 0.648832 1.891882 0.406497
v 0.587431 1.993410 0.479841
v 0.694057 1.792449 0.435675
v 0.635740 1.962203 0.459831
v 0.673905 1.891882 0.444022
v 0.589111 1.993410 0.488286
v 0.704522 1.792449 0.488286
v 0.641401 1.962203 0.488286
v 0.682710 1.891882 0.488286
v 0.587431 1.993410 0.496732
v 0.694057 1.792449 0.540898
v 0.635740 1.962203 0.516742
v 0.673905 1.891882 0.532551
v 0.582647 1.993410 0.503892
v 0.664255 1.792449 0.585499
v 0.619622 1.962203 0.540866
v 0.648832 1.891882 0.570076
v 0.575488 1.993410 0.508676
v 0.619653 1.792449 0.615301
v 0.595498 1.962203 0.556985
v 0.611306 1.891882 0.595150
v 0.567042 1.993410 0.510356
v 0.567042 1.792449 0.625766
v 0.567042 1.962203 0.562645
v 0.567042 1.891882 0.603954
v 0.558597 1.993410 0.508676
v 0.514431 1.792449 0.615301
v 0.538586 1.962203 0.556985
v 0.522778 1.891882 0.595150
v 0.551437 1.993410 0.503892
v 0.469829 1.792449 0.585499
v 0.514463 1.962203 0.540866
v 0.485253 1.891882 0.570076
v 0.546653 1.993410 0.496732
v 0.440027 1.792449 0.540898
v 0.498344 1.962203 0.516742
v 0.460179 1.891882 0.532551
v 0.544973 1.993410 0.488286
v 0.429562 1.792449 0.488286
v 0.492684 1.962203 0.488286
v 0.451374 1.891882 0.488286
v 0.546653 1.993410 0.479841
v 0.440027 1.792449 0.435675
v 0.498344 1.962203 0.459831
v 0.460179 1.891882 0.444022
v 0.551437 1.993410 0.472681
v 0.469829 1.792449 0.391073
v 0.514463 1.962203 0.435707
v 0.485253 1.891882 0.406497
v 0.558597 1.993410 0.467897
v 0.514431 1.792449 0.361272
v 0.538586 1.962203 0.419588
v 0.522778 1.891882 0.381423
v 0.567042 -0.038134 0.096875
v 0.678098 -0.038134 0.114921
v 0.678098 0.146226 0.114921
v 0.567042 0.146226 0.096875
v 0.940408 0.146226 0.377231
v 0.940408 -0.038134 0.377231
v 0.958453 -0.038134 0.488286
v 0.958453 0.146226 0.488286
v 0.940408 -0.038134 0.599342
v 0.940408 0.146226 0.599342
v 0.678098 0.146226 0.861652
v 0.678098 -0.038134 0.861652
v 0.567042 -0.038134 0.879698
v 0.567042 0.146226 0.879698
v 0.455987 -0.038134 0.861652
v 0.455987 0.146226 0.861652
v 0.193677 0.146226 0.599342
v 0.193677 -0.038134 0.599342
v 0.175631 -0.038134 0.488286
v 0.175631 0.146226 0.488286
v 0.193677 -0.038134 0.377231
v 0.193677 0.146226 0.377231
v 0.455987 0.146226 0.114921
v 0.455987 -0.038134 0.114921
v 0.735045 1.308723 0.418697
v 0.748887 1.308723 0.488286
v 0.567042 1.308723 0.670132
v 0.497453 1.308723 0.656290
v 0.399039 1.308723 0.418697
v 0.438458 1.308723 0.359702
v 0.636631 1.308723 0.320283
v 0.695626 1.308723 0.359702
v 0.695626 1.308723 0.616870
v 0.636631 1.308723 0.656290
v 0.399039 1.308723 0.557876
v 0.385197 1.308723 0.488286
v 0.735045 1.308723 0.557876
v 0.438458 1.308723 0.616870
v 0.497453 1.308723 0.320283
v 0.567042 1.308723 0.306441
vn 0.4647 0.5481 0.6954
vn 0.3201 0.5481 0.7727
vn -0.3201 0.5481 -0.7727
vn -0.1632 0.5481 -0.8203
vn -0.0000 -1.0000 -0.0000
vn 0.8203 0.5481 0.1632
vn 0.7727 0.5481 0.3201
vn -0.7727 0.5481 -0.3201
vn -0.6954 0.5481 -0.4647
vn 0.6954 0.5481 -0.4647
vn 0.7727 0.5481 -0.3201
vn -0.7727 0.5481 0.3201
vn -0.8203 0.5481 0.1632
vn 0.1632 0.5481 -0.8203
vn 0.3201 0.5481 -0.7727
vn -0.3201 0.5481 0.7727
vn -0.4647 0.5481 0.6954
vn 0.5914 0.5481 0.5914
vn -0.4647 0.5481 -0.6954
vn 0.8364 0.5481 -0.0000
vn -0.8203 0.5481 -0.1632
vn 0.5914 0.5481 -0.5914
vn -0.6954 0.5481 0.4647
vn -0.0000 0.5481 -0.8364
vn 0.1833 0.3428 -0.9214
vn -0.0000 0.3428 -0.9394
vn -0.0000 0.4773 -0.8787
vn 0.1714 0.4773 -0.8618
vn -0.0000 0.7183 -0.6958
vn 0.1357 0.7183 -0.6824
vn -0.0000 0.9486 -0.3166
vn 0.0618 0.9486 -0.3105
vn 0.3595 0.3428 -0.8679
vn 0.3363 0.4773 -0.8118
vn 0.2663 0.7183 -0.6428
vn 0.1211 0.9486 -0.2925
vn 0.5219 0.3428 -0.7811
vn 0.4882 0.4773 -0.7306
vn 0.3865 0.7183 -0.5785
vn 0.1759 0.9486 -0.2632
vn 0.6643 0.3428 -0.6643
vn 0.6213 0.4773 -0.6213
vn 0.4920 0.7183 -0.4920
vn 0.2239 0.9486 -0.2239
vn 0.7811 0.3428 -0.5219
vn 0.7306 0.4773 -0.4882
vn 0.5785 0.7183 -0.3865
vn 0.2632 0.9486 -0.1759
vn 0.8679 0.3428 -0.3595
vn 0.8118 0.4773 -0.3363
vn 0.6428 0.7183 -0.2663
vn 0.2925 0.9486 -0.1211
vn 0.9214 0.3428 -0.1833
vn 0.8618 0.4773 -0.1714
vn 0.6824 0.7183 -0.1357
vn 0.3105 0.9486 -0.0618
vn 0.9394 0.3428 -0.0000
vn 0.8787 0.4773 -0.0000
vn 0.6958 0.7183 -0.0000
vn 0.3166 0.9486 -0.0000
vn 0.9214 0.3428 0.1833
vn 0.8618 0.4773 0.1714
vn 0.6824 0.7183 0.1357
vn 0.3105 0.9486 0.0618
vn 0.8679 0.3428 0.3595
vn 0.8118 0.4773 0.3363
vn 0.6428 0.7183 0.2663
vn 0.2925 0.9486 0.1211
vn 0.7811 0.3428 0.5219
vn 0.7306 0.4773 0.4882
vn 0.5785 0.7183 0.3865
vn 0.2632 0.9486 0.1759
vn 0.6643 0.3428 0.6643
vn 0.6213 0.4773 0.6213
vn 0.4920 0.7183 0.4920
vn 0.2239 0.9486 0.2239
vn 0.5219 0.3428 0.7811
vn 0.4882 0.4773 0.7306
vn 0.3865 0.7183 0.5785
vn 0.1759 0.9486 0.2632
vn 0.3595 0.3428 0.8679
vn 0.3363 0.4773 0.8118
vn 0.2663 0.7183 0.6428
vn 0.1211 0.9486 0.2925
vn 0.1833 0.3428 0.9214
vn 0.1714 0.4773 0.8618
vn 0.1357 0.7183 0.6824
vn 0.0618 0.9486 0.3105
vn -0.0000 0.3428 0.9394
vn -0.0000 0.4773 0.8787
vn -0.0000 0.7183 0.6958
vn -0.0000 0.9486 0.3166
vn -0.1833 0.3428 0.9214
vn -0.1714 0.4773 0.8618
vn -0.1357 0.7183 0.6824
vn -0.0618 0.9486 0.3105
vn -0.3595 0.3428 0.8679
vn -0.3363 0.4773 0.8118
vn -0.2663 0.7183 0.6428
vn -0.1211 0.9486 0.2925
vn -0.5219 0.3428 0.7811
vn -0.4882 0.4773 0.7306
vn -0.3865 0.7183 0.5785
vn -0.1759 0.9486 0.2632
vn -0.6643 0.3428 0.6643
vn -0.6213 0.4773 0.6213
vn -0.4920 0.7183 0.4920
vn -0.2239 0.9486 0.2239
vn -0.7811 0.3428 0.5219
vn -0.7306 0.4773 0.4882
vn -0.5785 0.7183 0.3865
vn -0.2632 0.9486 0.1759
vn -0.8679 0.3428 0.3595
vn -0.8118 0.4773 0.3363
vn -0.6428 0.7183 0.2663
vn -0.2925 0.9486 0.1211
vn -0.9214 0.3428 0.1833
vn -0.8618 0.4773 0.1714
vn -0.6824 0.7183 0.1357
vn -0.3105 0.9486 0.0618
vn -0.9394 0.3428 -0.0000
vn -0.8787 0.4773 -0.0000
vn -0.6958 0.7183 -0.0000
vn -0.3166 0.9486 -0.0000
vn -0.9214 0.3428 -0.1833
vn -0.8618 0.4773 -0.1714
vn -0.6824 0.7183 -0.1357
vn -0.3105 0.9486 -0.0618
vn -0.8679 0.3428 -0.3595
vn -0.8118 0.4773 -0.3363
vn -0.6428 0.7183 -0.2663
vn -0.2925 0.9486 -0.1211
vn -0.7811 0.3428 -0.5219
vn -0.7306 0.4773 -0.4882
vn -0.5785 0.7183 -0.3865
vn -0.2632 0.9486 -0.1759
vn -0.6643 0.3428 -0.6643
vn -0.6213 0.4773 -0.6213
vn -0.4920 0.7183 -0.4920
vn -0.2239 0.9486 -0.2239
vn -0.5219 0.3428 -0.7811
vn -0.4882 0.4773 -0.7306
vn -0.3865 0.7183 -0.5785
vn -0.1759 0.9486 -0.2632
vn -0.3595 0.3428 -0.8679
vn -0.3363 0.4773 -0.8118
vn -0.2663 0.7183 -0.6428
vn -0.1211 0.9486 -0.2925
vn -0.1833 0.3428 -0.9214
vn -0.1714 0.4773 -0.8618
vn -0.1357 0.7183 -0.6824
vn -0.0618 0.9486 -0.3105
vn -0.1937 0.1185 -0.9739
vn -0.0000 0.1185 -0.9930
vn 0.3800 0.1185 -0.9174
vn 0.5517 0.1185 -0.8256
vn 0.7021 0.1185 -0.7021
vn 0.8256 0.1185 -0.5517
vn 0.9174 0.1185 -0.3800
vn 0.9739 0.1185 -0.1937
vn 0.9930 0.1185 -0.0000
vn 0.9739 0.1185 0.1937
vn 0.9174 0.1185 0.3800
vn 0.8256 0.1185 0.5517
vn 0.7021 0.1185 0.7021
vn 0.5517 0.1185 0.8256
vn 0.3800 0.1185 0.9174
vn 0.1937 0.1185 0.9739
vn -0.0000 0.1185 0.9930
vn -0.1937 0.1185 0.9739
vn -0.3800 0.1185 0.9174
vn -0.5517 0.1185 0.8256
vn -0.7021 0.1185 0.7021
vn -0.8256 0.1185 0.5517
vn -0.9174 0.1185 0.3800
vn -0.9739 0.1185 0.1937
vn -0.9930 0.1185 -0.0000
vn -0.9739 0.1185 -0.1937
vn -0.9174 0.1185 -0.3800
vn -0.8256 0.1185 -0.5517
vn -0.7021 0.1185 -0.7021
vn -0.5517 0.1185 -0.8256
vn -0.3800 0.1185 -0.9174
vn 0.1937 0.1185 -0.9739
vn -0.5914 0.5481 0.5914
vn 0.4647 0.5481 -0.6954
vn -0.8364 0.5481 -0.0000
vn 0.8203 0.5481 -0.1632
vn -0.0000 0.5481 0.8364
vn -0.1632 0.5481 0.8203
vn -0.5914 0.5481 -0.5914
vn 0.6954 0.5481 0.4647
vn 0.1632 0.5481 0.8203
vn 0.7564 -0.4825 0.4416
vn -0.8748 -0.3272 0.3574
vn 0.8775 0.4795 -0.0017
vn -0.8216 0.5701 -0.0001
vn 0.5748 -0.0628 -0.8159
vn -0.9181 0.0317 -0.3950
vn -0.4416 -0.4825 0.7564
vn -0.3574 -0.3272 -0.8748
vn 0.0017 0.4795 0.8775
vn 0.0001 0.5701 -0.8216
vn 0.8159 -0.0628 0.5748
vn 0.3950 0.0317 -0.9181
vn -0.7564 -0.4825 -0.4416
vn 0.8748 -0.3272 -0.3574
vn -0.8775 0.4795 0.0017
vn 0.8216 0.5701 0.0001
vn -0.5748 -0.0628 0.8159
vn 0.9181 0.0317 0.3950
vn 0.4416 -0.4825 -0.7564
vn 0.3574 -0.3272 0.8748
vn -0.0017 0.4795 -0.8775
vn -0.0001 0.5701 0.8216
vn -0.8159 -0.0628 -0.5748
vn -0.3950 0.0317 0.9181
vn -0.3725 0.8500 -0.3725
vn -0.3651 -0.8564 -0.3651
vn 0.8290 0.5593 -0.0000
vn 0.3569 -0.9341 -0.0000
vn 0.0001 0.5588 0.8293
vn -0.0001 -0.9343 0.3565
vn 0.3536 -0.8660 -0.3536
vn 0.3536 0.8660 -0.3536
vn -0.8069 -0.5907 -0.0000
vn -0.3437 0.9391 -0.0000
vn -0.0000 -0.5907 0.8069
vn -0.0000 0.9391 0.3437
vn 0.2996 -0.2774 -0.9128
vn 0.3522 -0.2774 0.8939
vn -0.0002 0.7809 -0.6246
vn -0.0000 0.3323 0.9432
vn -0.8956 -0.0449 -0.4426
vn -0.3446 0.0182 0.9386
vn 0.4036 -0.3470 -0.8466
vn 0.3596 -0.2186 0.9071
vn -0.0008 0.4069 -0.9135
vn -0.0004 0.4835 0.8753
vn -0.9362 -0.0816 -0.3419
vn -0.3750 0.0418 0.9261
vn 0.4141 -0.3998 -0.8177
vn 0.3951 -0.2643 0.8798
vn -0.0013 0.3946 -0.9189
vn -0.0005 0.5056 0.8628
vn -0.9191 -0.1061 -0.3795
vn -0.3840 0.0522 0.9218
vn -0.9128 -0.2774 -0.2996
vn 0.8939 -0.2774 -0.3522
vn -0.6246 0.7809 0.0002
vn 0.9432 0.3323 -0.0000
vn -0.4426 -0.0449 0.8956
vn 0.9386 0.0182 0.3447
vn -0.8466 -0.3470 -0.4036
vn 0.9071 -0.2186 -0.3596
vn -0.9135 0.4069 0.0008
vn 0.8753 0.4835 0.0004
vn -0.3419 -0.0816 0.9362
vn 0.9261 0.0418 0.3750
vn -0.8177 -0.3998 -0.4141
vn 0.8798 -0.2643 -0.3951
vn -0.9189 0.3946 0.0013
vn 0.8628 0.5056 0.0005
vn -0.3795 -0.1061 0.9191
vn 0.9218 0.0522 0.3840
vn -0.2996 -0.2774 0.9128
vn -0.3522 -0.2774 -0.8939
vn 0.0002 0.7809 0.6246
vn -0.0000 0.3323 -0.9432
vn 0.8956 -0.0449 0.4426
vn 0.3447 0.0182 -0.9386
vn -0.4036 -0.3470 0.8466
vn -0.3596 -0.2186 -0.9071
vn 0.0008 0.4069 0.9135
vn 0.0004 0.4835 -0.8753
vn 0.9362 -0.0816 0.3419
vn 0.3750 0.0418 -0.9261
vn -0.4141 -0.3998 0.8177
vn -0.3951 -0.2643 -0.8798
vn 0.0013 0.3946 0.9189
vn 0.0005 0.5056 -0.8628
vn 0.9191 -0.1061 0.3795
vn 0.3840 0.0522 -0.9218
vn 0.9128 -0.2774 0.2996
vn -0.8939 -0.2774 0.3522
vn 0.6246 0.7809 -0.0002
vn -0.9432 0.3323 -0.0000
vn 0.4426 -0.0449 -0.8956
vn -0.9386 0.0182 -0.3446
vn 0.8466 -0.3470 0.4036
vn -0.9071 -0.2186 0.3596
vn 0.9135 0.4069 -0.0008
vn -0.8753 0.4835 -0.0004
vn 0.3419 -0.0816 -0.9362
vn -0.9261 0.0418 -0.3750
vn 0.8177 -0.3998 0.4141
vn -0.8798 -0.2643 0.3951
vn 0.9189 0.3946 -0.0013
vn -0.8628 0.5056 -0.0005
vn 0.3795 -0.1061 -0.9191
vn -0.9218 0.0522 -0.3840
vn 0.5907 -0.8069 -0.0000
vn -0.9391 -0.3437 -0.0000
vn 0.5672 -0.0579 0.8215
vn -0.9202 0.0300 0.3903
vn 0.9231 0.2548 -0.2881
vn -0.7210 0.5250 -0.4522
vn -0.0000 -0.8069 0.5907
vn -0.0000 -0.3437 -0.9391
vn -0.8215 -0.0579 0.5672
vn -0.3903 0.0300 -0.9202
vn 0.2881 0.2548 0.9231
vn 0.4522 0.5250 -0.7210
vn -0.5907 -0.8069 -0.0000
vn 0.9391 -0.3437 -0.0000
vn -0.5672 -0.0579 -0.8215
vn 0.9202 0.0300 -0.3903
vn -0.9231 0.2548 0.2881
vn 0.7210 0.5250 0.4522
vn -0.0000 -0.8069 -0.5907
vn -0.0000 -0.3437 0.9391
vn 0.8215 -0.0579 -0.5672
vn 0.3903 0.0300 0.9202
vn -0.2881 0.2548 -0.9231
vn -0.4522 0.5250 0.7210
vn -0.8290 0.5593 -0.0000
vn -0.3569 -0.9341 -0.0000
vn -0.0001 0.5588 -0.8293
vn 0.0001 -0.9343 -0.3565
vn 0.3725 0.8500 0.3725
vn 0.3651 -0.8564 0.3651
vn 0.8069 -0.5907 -0.0000
vn 0.3437 0.9391 -0.0000
vn -0.0000 -0.5907 -0.8069
vn -0.0000 0.9391 -0.3437
vn -0.3536 -0.8660 0.3536
vn -0.3536 0.8660 0.3536
vn -0.0000 -0.4797 -0.8774
vn -0.0000 -0.4048 0.9144
vn 0.8979 -0.0469 -0.4377
vn 0.3477 0.0192 0.9374
vn -0.5552 0.4258 -0.7145
vn -0.3462 0.3243 0.8803
vn -0.0000 -0.4958 -0.8684
vn -0.0000 -0.3823 0.9240
vn 0.9382 -0.0825 -0.3360
vn 0.3737 0.0425 0.9266
vn -0.4575 0.2752 -0.8456
vn -0.4163 0.3940 0.8194
vn -0.0000 -0.5607 -0.8280
vn -0.0000 -0.4584 0.8887
vn 0.9241 -0.1056 -0.3673
vn 0.3816 0.0525 0.9228
vn -0.4169 0.2641 -0.8697
vn -0.3916 0.4264 0.8154
vn -0.8774 -0.4797 -0.0000
vn 0.9144 -0.4048 -0.0000
vn -0.4377 -0.0469 -0.8979
vn 0.9374 0.0192 -0.3477
vn -0.7145 0.4258 0.5552
vn 0.8803 0.3243 0.3462
vn -0.8684 -0.4958 -0.0000
vn 0.9240 -0.3823 -0.0000
vn -0.3360 -0.0825 -0.9382
vn 0.9266 0.0425 -0.3737
vn -0.8456 0.2752 0.4575
vn 0.8194 0.3940 0.4163
vn -0.8280 -0.5607 -0.0000
vn 0.8887 -0.4584 -0.0000
vn -0.3673 -0.1056 -0.9241
vn 0.9228 0.0525 -0.3816
vn -0.8697 0.2641 0.4169
vn 0.8154 0.4264 0.3916
vn -0.0000 -0.4797 0.8774
vn -0.0000 -0.4048 -0.9144
vn -0.8979 -0.0469 0.4377
vn -0.3477 0.0192 -0.9374
vn 0.5552 0.4258 0.7145
vn 0.3462 0.3243 -0.8803
vn -0.0000 -0.4958 0.8684
vn -0.0000 -0.3823 -0.9240
vn -0.9382 -0.0825 0.3360
vn -0.3737 0.0425 -0.9266
vn 0.4575 0.2752 0.8456
vn 0.4163 0.3940 -0.8194
vn -0.0000 -0.5607 0.8280
vn -0.0000 -0.4584 -0.8887
vn -0.9241 -0.1056 0.3673
vn -0.3816 0.0525 -0.9228
vn 0.4169 0.2641 0.8697
vn 0.3916 0.4264 -0.8154
vn 0.8774 -0.4797 -0.0000
vn -0.9144 -0.4048 -0.0000
vn 0.4377 -0.0469 0.8979
vn -0.9374 0.0192 0.3477
vn 0.7145 0.4258 -0.5552
vn -0.8803 0.3243 -0.3462
vn 0.8684 -0.4958 -0.0000
vn -0.9240 -0.3823 -0.0000
vn 0.3360 -0.0825 0.9382
vn -0.9266 0.0425 0.3737
vn 0.8456 0.2752 -0.4575
vn -0.8194 0.3940 -0.4163
vn 0.8280 -0.5607 -0.0000
vn -0.8887 -0.4584 -0.0000
vn 0.3673 -0.1056 0.9241
vn -0.9228 0.0525 0.3816
vn 0.8697 0.2641 -0.4169
vn -0.8154 0.4264 -0.3916
vn 0.7096 -0.7046 -0.0000
vn 0.7041 -0.6991 -0.1244
vn 0.9667 -0.0000 -0.2560
vn 0.7525 -0.0000 -0.6586
vn 0.7071 -0.0000 -0.7071
vn 0.6586 -0.0000 -0.7525
vn 0.2560 -0.0000 -0.9667
vn -0.0000 0.2666 0.9638
vn -0.3152 0.1737 0.9330
vn -0.7759 0.1926 0.6007
vn -0.0000 0.2497 0.9683
vn 0.9330 0.1737 -0.3152
vn 0.9638 0.2666 -0.0000
vn 0.9683 0.2497 -0.0000
vn 0.6007 0.1926 -0.7759
vn 0.2560 -0.0000 0.9667
vn 0.6586 -0.0000 0.7525
vn 0.7071 -0.0000 0.7071
vn 0.7525 -0.0000 0.6586
vn 0.9667 -0.0000 0.2560
vn -0.2560 -0.0000 0.9667
vn -0.6586 -0.0000 0.7525
vn -0.6007 0.1926 0.7759
vn -0.8093 -0.0000 0.5874
vn 0.5874 -0.0000 -0.8093
vn 0.7759 0.1926 -0.6007
vn -0.9667 -0.0000 0.2560
vn -0.7525 -0.0000 0.6586
vn -0.7071 -0.0000 0.7071
vn 0.1244 -0.6991 -0.7041
vn -0.0000 -0.7046 -0.7096
vn -0.7096 -0.7046 -0.0000
vn -0.7041 -0.6991 0.1244
vn -0.2560 -0.0000 -0.9667
vn -0.6586 -0.0000 -0.7525
vn -0.7071 -0.0000 -0.7071
vn 0.9999 0.0114 -0.0000
vn 0.9238 0.0114 -0.3827
vn 0.9198 0.0941 -0.3810
vn 0.9956 0.0941 -0.0000
vn -0.7525 -0.0000 -0.6586
vn -0.9667 -0.0000 -0.2560
vn -0.3152 0.1737 -0.9330
vn -0.0000 0.2666 -0.9638
vn -0.0000 0.2497 -0.9683
vn -0.7759 0.1926 -0.6007
vn 0.7040 0.0941 -0.7040
vn 0.3810 0.0941 -0.9198
vn 0.3756 0.1920 -0.9067
vn 0.6940 0.1920 -0.6940
vn -0.3827 0.0114 0.9238
vn -0.0000 0.0114 0.9999
vn -0.0000 0.0941 0.9956
vn -0.3810 0.0941 0.9198
vn -0.7071 0.0114 -0.7071
vn -0.9238 0.0114 -0.3827
vn -0.9198 0.0941 -0.3810
vn -0.7040 0.0941 -0.7040
vn 0.7071 0.0114 -0.7071
vn 0.3827 0.0114 -0.9238
vn 0.3827 0.0114 0.9238
vn 0.7071 0.0114 0.7071
vn 0.7040 0.0941 0.7040
vn 0.3810 0.0941 0.9198
vn -0.9999 0.0114 -0.0000
vn -0.9238 0.0114 0.3827
vn -0.9198 0.0941 0.3810
vn -0.9956 0.0941 -0.0000
vn 0.9238 0.0114 0.3827
vn 0.9198 0.0941 0.3810
vn -0.7071 0.0114 0.7071
vn -0.7040 0.0941 0.7040
vn -0.3827 0.0114 -0.9238
vn -0.3810 0.0941 -0.9198
vn -0.0000 0.0114 -0.9999
vn -0.0000 0.0941 -0.9956
vn -0.3756 0.1920 -0.9067
vn -0.0000 0.1920 -0.9814
vn -0.3756 0.1920 0.9067
vn -0.6940 0.1920 0.6940
vn 0.9067 0.1920 -0.3756
vn -0.9067 0.1920 0.3756
vn 0.9814 0.1920 -0.0000
vn -0.9814 0.1920 -0.0000
vn 0.9067 0.1920 0.3756
vn -0.9067 0.1920 -0.3756
vn 0.6940 0.1920 0.6940
vn -0.6940 0.1920 -0.6940
vn 0.3756 0.1920 0.9067
vn -0.0000 0.1920 0.9814
vn -0.0000 0.3585 -0.9335
vn 0.3573 0.3585 -0.8625
vn -0.0000 0.6895 -0.7243
vn 0.2772 0.6895 -0.6691
vn -0.0000 0.9552 -0.2961
vn 0.1133 0.9552 -0.2736
vn 0.6601 0.3585 -0.6601
vn 0.5121 0.6895 -0.5121
vn 0.2094 0.9552 -0.2094
vn 0.8625 0.3585 -0.3573
vn 0.6691 0.6895 -0.2772
vn 0.2736 0.9552 -0.1133
vn 0.9335 0.3585 -0.0000
vn 0.7243 0.6895 -0.0000
vn 0.2961 0.9552 -0.0000
vn 0.8625 0.3585 0.3573
vn 0.6691 0.6895 0.2772
vn 0.2736 0.9552 0.1133
vn 0.6601 0.3585 0.6601
vn 0.5121 0.6895 0.5121
vn 0.2094 0.9552 0.2094
vn 0.3573 0.3585 0.8625
vn 0.2772 0.6895 0.6691
vn 0.1133 0.9552 0.2736
vn -0.0000 0.3585 0.9335
vn -0.0000 0.6895 0.7243
vn -0.0000 0.9552 0.2961
vn -0.3573 0.3585 0.8625
vn -0.2772 0.6895 0.6691
vn -0.1133 0.9552 0.2736
vn -0.6601 0.3585 0.6601
vn -0.5121 0.6895 0.5121
vn -0.2094 0.9552 0.2094
vn -0.8625 0.3585 0.3573
vn -0.6691 0.6895 0.2772
vn -0.2736 0.9552 0.1133
vn -0.9335 0.3585 -0.0000
vn -0.7243 0.6895 -0.0000
vn -0.2961 0.9552 -0.0000
vn -0.8625 0.3585 -0.3573
vn -0.6691 0.6895 -0.2772
vn -0.2736 0.9552 -0.1133
vn -0.6601 0.3585 -0.6601
vn -0.5121 0.6895 -0.5121
vn -0.2094 0.9552 -0.2094
vn -0.3573 0.3585 -0.8625
vn -0.2772 0.6895 -0.6691
vn -0.1133 0.9552 -0.2736
vn -0.0000 -0.0000 -1.0000
vn 0.8093 -0.0000 -0.5874
vn 1.0000 -0.0000 -0.0000
vn 0.6007 0.1926 0.7759
vn 0.8093 -0.0000 0.5874
vn 0.5874 -0.0000 0.8093
vn 0.7759 0.1926 0.6007
vn -0.0000 -0.0000 1.0000
vn -0.5874 -0.0000 0.8093
vn -0.9683 0.2497 -0.0000
vn -1.0000 -0.0000 -0.0000
vn -0.6007 0.1926 -0.7759
vn -0.8093 -0.0000 -0.5874
vn -0.5874 -0.0000 -0.8093
vn -0.8587 0.4895 0.1517
vn -0.8688 0.4952 -0.0000
vn -0.7041 -0.6991 -0.1244
vn 0.9330 0.1737 0.3152
vn -0.1244 -0.6991 -0.7041
vn 0.7041 -0.6991 0.1244
vn -0.1244 -0.6991 0.7041
vn -0.0000 -0.7046 0.7096
vn 0.3152 0.1737 0.9330
vn -0.8587 0.4895 -0.1517
vn 0.3152 0.1737 -0.9330
vn 0.1244 -0.6991 0.7041
vn -0.9239 0.0039 0.3827
vn -0.7071 0.0039 0.7071
vn 0.7071 0.0039 0.7071
vn -0.9239 0.0039 -0.3827
vn -1.0000 0.0039 -0.0000
vn 0.7071 0.0039 -0.7071
vn -0.7071 0.0039 -0.7071
vt 0.327621 0.879906
vt 0.327621 0.842600
vt 0.353548 0.845073
vt 0.353548 0.883497
vt 0.327621 0.677445
vt 0.327621 0.717925
vt 0.353548 0.716664
vt 0.353548 0.674972
vt 0.209060 0.602801
vt 0.209060 0.636494
vt 0.209060 0.632903
vt 0.209060 0.598230
vt 0.209060 0.845110
vt 0.209060 0.883551
vt 0.209060 0.887142
vt 0.209060 0.847584
vt 0.209060 0.674935
vt 0.209060 0.672461
vt 0.209060 0.917244
vt 0.209060 0.921815
vt 0.327621 0.971661
vt 0.327621 0.959381
vt 0.353548 0.965353
vt 0.353548 0.978000
vt 0.327621 0.560664
vt 0.327621 0.580604
vt 0.353548 0.575230
vt 0.353548 0.554692
vt 0.209060 0.716645
vt 0.209060 0.715384
vt 0.209060 0.944896
vt 0.209060 0.950270
vt 0.209060 0.760022
vt 0.209060 0.965443
vt 0.209060 0.971414
vt 0.327621 0.939441
vt 0.353548 0.944815
vt 0.327621 0.548384
vt 0.353548 0.542044
vt 0.209060 0.978095
vt 0.209060 0.984435
vt 0.209060 0.982368
vt 0.209060 0.988831
vt 0.327621 0.802120
vt 0.327621 0.842600
vt 0.353548 0.845073
vt 0.353548 0.803381
vt 0.327621 0.677445
vt 0.327621 0.640139
vt 0.353548 0.636548
vt 0.353548 0.674972
vt 0.327621 0.912605
vt 0.353548 0.917176
vt 0.353548 0.636548
vt 0.209060 0.965443
vt 0.209060 0.971414
vt 0.209060 0.944896
vt 0.209060 0.950270
vt 0.327621 0.975807
vt 0.353548 0.982271
vt 0.209060 0.917244
vt 0.209060 0.921815
vt 0.209060 0.883551
vt 0.209060 0.887142
vt 0.209060 0.845110
vt 0.209060 0.847584
vt 0.327621 0.760022
vt 0.353548 0.760022
vt 0.209060 0.803400
vt 0.209060 0.804661
vt 0.209060 0.575149
vt 0.209060 0.554602
vt 0.209060 0.541949
vt 0.209060 0.537677
vt 0.209060 0.554602
vt 0.209060 0.575149
vt 0.209060 0.602801
vt 0.209060 0.636494
vt 0.209060 0.674935
vt 0.209060 0.716645
vt 0.209060 0.760022
vt 0.209060 0.803400
vt 0.526485 0.386273
vt 0.477421 0.386273
vt 0.477421 0.507844
vt 0.526485 0.507844
vt 0.579697 0.724751
vt 0.579697 0.760022
vt 0.737419 0.760022
vt 0.737419 0.733730
vt 0.794258 0.760022
vt 0.794258 0.739781
vt 0.579697 0.690836
vt 0.737419 0.708449
vt 0.794258 0.720318
vt 0.579697 0.659579
vt 0.737419 0.685149
vt 0.794258 0.702380
vt 0.579697 0.632182
vt 0.737419 0.664727
vt 0.794258 0.686658
vt 0.579697 0.609698
vt 0.737419 0.647967
vt 0.794258 0.673755
vt 0.579697 0.592991
vt 0.737419 0.635513
vt 0.794258 0.664167
vt 0.579697 0.582703
vt 0.737419 0.627844
vt 0.794258 0.658263
vt 0.579697 0.579229
vt 0.737419 0.625255
vt 0.794258 0.656269
vt 0.579697 0.592991
vt 0.579697 0.609698
vt 0.579697 0.632182
vt 0.579697 0.659579
vt 0.579697 0.690836
vt 0.737419 0.708449
vt 0.579697 0.724751
vt 0.579697 0.760022
vt 0.579697 0.795293
vt 0.737419 0.786314
vt 0.794258 0.780264
vt 0.579697 0.829209
vt 0.737419 0.811596
vt 0.794258 0.799727
vt 0.579697 0.860466
vt 0.737419 0.834895
vt 0.794258 0.817664
vt 0.579697 0.887863
vt 0.737419 0.855318
vt 0.794258 0.833387
vt 0.579697 0.910347
vt 0.737419 0.872078
vt 0.794258 0.846290
vt 0.579697 0.927054
vt 0.737419 0.884532
vt 0.794258 0.855878
vt 0.579697 0.937342
vt 0.737419 0.892201
vt 0.794258 0.861782
vt 0.579697 0.940816
vt 0.737419 0.894790
vt 0.794258 0.863775
vt 0.579697 0.927054
vt 0.579697 0.910347
vt 0.579697 0.887863
vt 0.579697 0.860466
vt 0.579697 0.829209
vt 0.579697 0.795293
vt 0.209060 0.804661
vt 0.353548 0.760022
vt 0.353548 0.602869
vt 0.209060 0.569775
vt 0.209060 0.548630
vt 0.209060 0.535610
vt 0.353548 0.537774
vt 0.209060 0.531213
vt 0.209060 0.548630
vt 0.209060 0.569775
vt 0.209060 0.598230
vt 0.209060 0.632903
vt 0.209060 0.672461
vt 0.209060 0.715384
vt 0.353548 0.883497
vt 0.327621 0.607440
vt 0.327621 0.544238
vt 0.327621 0.760022
vt 0.327621 0.717925
vt 0.327621 0.802120
vt 0.685469 0.898451
vt 0.435625 0.898451
vt 0.435625 0.648607
vt 0.685469 0.648607
vt 0.345175 0.851657
vt 0.345175 0.845034
vt 0.279727 0.940285
vt 0.279727 0.948773
vt 0.345175 0.731370
vt 0.451312 0.731370
vt 0.451312 0.703146
vt 0.345175 0.703146
vt 0.451312 0.684288
vt 0.345175 0.684288
vt 0.451312 0.764661
vt 0.451312 0.797953
vt 0.337314 0.816900
vt 0.337314 0.764661
vt 0.451312 0.677666
vt 0.337314 0.580550
vt 0.337314 0.589037
vt 0.451312 0.845034
vt 0.337314 0.940285
vt 0.279727 0.712423
vt 0.337314 0.712423
vt 0.345175 0.797953
vt 0.451312 0.826176
vt 0.345175 0.826176
vt 0.345175 0.764661
vt 0.279727 0.764661
vt 0.279727 0.816900
vt 0.345175 0.677666
vt 0.279727 0.589037
vt 0.279727 0.580550
vt 0.700433 0.679125
vt 0.700433 0.685636
vt 0.780170 0.687726
vt 0.780170 0.681387
vt 0.624405 0.491921
vt 0.642345 0.491921
vt 0.647073 0.384461
vt 0.633142 0.384461
vt 0.700433 0.797394
vt 0.700433 0.764661
vt 0.780170 0.764661
vt 0.780170 0.796529
vt 0.700433 0.825145
vt 0.700433 0.843687
vt 0.780170 0.841596
vt 0.780170 0.823545
vt 0.700433 0.704178
vt 0.700433 0.731928
vt 0.780170 0.732794
vt 0.780170 0.705778
vt 0.700433 0.850198
vt 0.780170 0.847935
vt 0.663507 0.491921
vt 0.684669 0.491921
vt 0.679941 0.384461
vt 0.663507 0.384461
vt 0.702609 0.491921
vt 0.693873 0.384461
vt 0.612417 0.491921
vt 0.623832 0.384461
vt 0.714597 0.491921
vt 0.703182 0.384461
vt 0.608208 0.491921
vt 0.620564 0.384461
vt 0.718806 0.491921
vt 0.706450 0.384461
vt 0.851531 0.739914
vt 0.851531 0.764661
vt 0.882590 0.764661
vt 0.882590 0.743840
vt 0.904555 0.764661
vt 0.904555 0.751276
vt 0.914304 0.764661
vt 0.914304 0.760688
vt 0.851531 0.718934
vt 0.882590 0.726189
vt 0.904555 0.739929
vt 0.914304 0.757321
vt 0.851531 0.704916
vt 0.882590 0.714395
vt 0.904555 0.732347
vt 0.914304 0.755070
vt 0.851531 0.699994
vt 0.882590 0.710253
vt 0.904555 0.729684
vt 0.914304 0.754281
vt 0.851531 0.789409
vt 0.882590 0.785482
vt 0.904555 0.778046
vt 0.914304 0.768634
vt 0.851531 0.810388
vt 0.882590 0.803133
vt 0.904555 0.789393
vt 0.914304 0.772002
vt 0.851531 0.824407
vt 0.882590 0.814927
vt 0.904555 0.796975
vt 0.914304 0.774252
vt 0.851531 0.829329
vt 0.882590 0.819069
vt 0.904555 0.799638
vt 0.914304 0.775042
vt 0.337314 0.948773
vt 0.451312 0.851657
s 1
usemtl Cylinder
f 150/1/1 154/2/2 223/3/2 222/4/1
f 90/5/3 94/6/4 208/7/4 207/8/3
f 5/9/5 4/10/5 164/11/5 165/12/5
f 31/13/5 30/14/5 190/15/5 191/16/5
f 4/10/5 3/17/5 163/18/5 164/11/5
f 30/14/5 29/19/5 189/20/5 190/15/5
f 134/21/6 138/22/7 219/23/7 218/24/6
f 74/25/8 78/26/9 204/27/9 203/28/8
f 3/17/5 2/29/5 162/30/5 163/18/5
f 29/19/5 28/31/5 188/32/5 189/20/5
f 2/29/5 1/33/5 161/33/5 162/30/5
f 28/31/5 27/34/5 187/35/5 188/32/5
f 118/36/10 122/22/11 215/23/11 214/37/10
f 58/25/12 62/38/13 200/39/13 199/28/12
f 27/34/5 26/40/5 186/41/5 187/35/5
f 26/40/5 25/42/5 185/43/5 186/41/5
f 102/44/14 106/45/15 211/46/15 210/47/14
f 42/48/16 46/49/17 196/50/17 195/51/16
f 25/42/5 24/40/5 184/41/5 185/43/5
f 146/52/18 150/1/1 222/4/1 221/53/18
f 86/49/19 90/5/3 207/8/3 206/54/19
f 24/40/5 23/55/5 183/56/5 184/41/5
f 23/55/5 22/57/5 182/58/5 183/56/5
f 130/59/20 134/21/6 218/24/6 217/60/20
f 70/38/21 74/25/8 203/28/8 202/39/21
f 22/57/5 21/61/5 181/62/5 182/58/5
f 21/61/5 20/63/5 180/64/5 181/62/5
f 114/52/22 118/36/10 214/37/10 213/53/22
f 54/26/23 58/25/12 199/28/12 198/27/23
f 20/63/5 19/65/5 179/66/5 180/64/5
f 98/67/24 102/44/14 210/47/14 209/68/24
f 19/65/5 18/69/5 178/70/5 179/66/5
f 1/33/5 2/29/5 3/17/5 4/10/5 5/9/5 6/71/5 7/72/5 8/73/5 9/74/5 10/73/5 11/75/5 12/76/5 13/77/5 14/78/5 15/79/5 16/80/5 17/81/5 18/69/5 19/65/5 20/63/5 21/61/5 22/57/5 23/55/5 24/40/5 25/42/5 26/40/5 27/34/5 28/31/5 29/19/5 30/14/5 31/13/5 32/82/5
f 38/83/25 34/84/26 36/85/27 40/86/28
f 40/87/28 36/88/27 35/89/29 39/90/30
f 39/90/30 35/89/29 33/91/31 37/92/32
f 42/83/33 38/84/25 40/85/28 44/86/34
f 44/93/34 40/87/28 39/90/30 43/94/35
f 43/94/35 39/90/30 37/92/32 41/95/36
f 46/83/37 42/84/33 44/85/34 48/86/38
f 48/96/38 44/93/34 43/94/35 47/97/39
f 47/97/39 43/94/35 41/95/36 45/98/40
f 50/83/41 46/84/37 48/85/38 52/86/42
f 52/99/42 48/96/38 47/97/39 51/100/43
f 51/100/43 47/97/39 45/98/40 49/101/44
f 54/83/45 50/84/41 52/85/42 56/86/46
f 56/102/46 52/99/42 51/100/43 55/103/47
f 55/103/47 51/100/43 49/101/44 53/104/48
f 58/83/49 54/84/45 56/85/46 60/86/50
f 60/105/50 56/102/46 55/103/47 59/106/51
f 59/106/51 55/103/47 53/104/48 57/107/52
f 62/83/53 58/84/49 60/85/50 64/86/54
f 64/108/54 60/105/50 59/106/51 63/109/55
f 63/109/55 59/106/51 57/107/52 61/110/56
f 66/83/57 62/84/53 64/85/54 68/86/58
f 68/111/58 64/108/54 63/109/55 67/112/59
f 67/112/59 63/109/55 61/110/56 65/113/60
f 70/83/61 66/84/57 68/85/58 72/86/62
f 72/108/62 68/111/58 67/112/59 71/109/63
f 71/109/63 67/112/59 65/113/60 69/110/64
f 74/83/65 70/84/61 72/85/62 76/86/66
f 76/114/66 72/108/62 71/109/63 75/106/67
f 75/106/67 71/109/63 69/110/64 73/107/68
f 78/83/69 74/84/65 76/85/66 80/86/70
f 80/115/70 76/114/66 75/106/67 79/103/71
f 79/103/71 75/106/67 73/107/68 77/104/72
f 82/83/73 78/84/69 80/85/70 84/86/74
f 84/116/74 80/115/70 79/103/71 83/100/75
f 83/100/75 79/103/71 77/104/72 81/101/76
f 86/83/77 82/84/73 84/85/74 88/86/78
f 88/117/78 84/116/74 83/100/75 87/97/79
f 87/97/79 83/100/75 81/101/76 85/98/80
f 90/83/81 86/84/77 88/85/78 92/86/82
f 92/118/82 88/117/78 87/97/79 91/119/83
f 91/119/83 87/97/79 85/98/80 89/95/84
f 94/83/85 90/84/81 92/85/82 96/86/86
f 96/120/86 92/118/82 91/119/83 95/90/87
f 95/90/87 91/119/83 89/95/84 93/92/88
f 98/83/89 94/84/85 96/85/86 100/86/90
f 100/121/90 96/120/86 95/90/87 99/89/91
f 99/89/91 95/90/87 93/92/88 97/91/92
f 102/83/93 98/84/89 100/85/90 104/86/94
f 104/122/94 100/121/90 99/89/91 103/123/95
f 103/123/95 99/89/91 97/91/92 101/124/96
f 106/83/97 102/84/93 104/85/94 108/86/98
f 108/125/98 104/122/94 103/123/95 107/126/99
f 107/126/99 103/123/95 101/124/96 105/127/100
f 110/83/101 106/84/97 108/85/98 112/86/102
f 112/128/102 108/125/98 107/126/99 111/129/103
f 111/129/103 107/126/99 105/127/100 109/130/104
f 114/83/105 110/84/101 112/85/102 116/86/106
f 116/131/106 112/128/102 111/129/103 115/132/107
f 115/132/107 111/129/103 109/130/104 113/133/108
f 118/83/109 114/84/105 116/85/106 120/86/110
f 120/134/110 116/131/106 115/132/107 119/135/111
f 119/135/111 115/132/107 113/133/108 117/136/112
f 122/83/113 118/84/109 120/85/110 124/86/114
f 124/137/114 120/134/110 119/135/111 123/138/115
f 123/138/115 119/135/111 117/136/112 121/139/116
f 126/83/117 122/84/113 124/85/114 128/86/118
f 128/140/118 124/137/114 123/138/115 127/141/119
f 127/141/119 123/138/115 121/139/116 125/142/120
f 130/83/121 126/84/117 128/85/118 132/86/122
f 132/143/122 128/140/118 127/141/119 131/144/123
f 131/144/123 127/141/119 125/142/120 129/145/124
f 134/83/125 130/84/121 132/85/122 136/86/126
f 136/140/126 132/143/122 131/144/123 135/141/127
f 135/141/127 131/144/123 129/145/124 133/142/128
f 138/83/129 134/84/125 136/85/126 140/86/130
f 140/146/130 136/140/126 135/141/127 139/138/131
f 139/138/131 135/141/127 133/142/128 137/139/132
f 142/83/133 138/84/129 140/85/130 144/86/134
f 144/147/134 140/146/130 139/138/131 143/135/135
f 143/135/135 139/138/131 137/139/132 141/136/136
f 146/83/137 142/84/133 144/85/134 148/86/138
f 148/148/138 144/147/134 143/135/135 147/132/139
f 147/132/139 143/135/135 141/136/136 145/133/140
f 150/83/141 146/84/137 148/85/138 152/86/142
f 152/149/142 148/148/138 147/132/139 151/129/143
f 151/129/143 147/132/139 145/133/140 149/130/144
f 154/83/145 150/84/141 152/85/142 156/86/146
f 156/150/146 152/149/142 151/129/143 155/126/147
f 155/126/147 151/129/143 149/130/144 153/127/148
f 158/83/149 154/84/145 156/85/146 160/86/150
f 160/151/150 156/150/146 155/126/147 159/123/151
f 159/123/151 155/126/147 153/127/148 157/124/152
f 34/83/26 158/84/149 160/85/150 36/86/27
f 36/88/27 160/151/150 159/123/151 35/89/29
f 35/89/29 159/123/151 157/124/152 33/91/31
f 37/92/32 33/91/31 157/124/152 153/127/148 149/130/144 145/133/140 141/136/136 137/139/132 133/142/128 129/145/124 125/142/120 121/139/116 117/136/112 113/133/108 109/130/104 105/127/100 101/124/96 97/91/92 93/92/88 89/95/84 85/98/80 81/101/76 77/104/72 73/107/68 69/110/64 65/113/60 61/110/56 57/107/52 53/104/48 49/101/44 45/98/40 41/95/36
f 192/152/153 224/47/153 194/153/154 161/33/154
f 163/18/155 195/51/155 196/50/156 164/11/156
f 164/11/156 196/50/156 197/154/157 165/12/157
f 165/12/157 197/154/157 198/27/158 166/155/158
f 166/155/158 198/27/158 199/28/159 167/156/159
f 167/156/159 199/28/159 200/39/160 168/157/160
f 168/157/160 200/39/160 201/158/161 169/159/161
f 169/159/161 201/158/161 202/39/162 170/157/162
f 170/157/162 202/39/162 203/28/163 171/160/163
f 171/160/163 203/28/163 204/27/164 172/161/164
f 172/161/164 204/27/164 205/154/165 173/162/165
f 173/162/165 205/154/165 206/54/166 174/163/166
f 174/163/166 206/54/166 207/8/167 175/164/167
f 175/164/167 207/8/167 208/7/168 176/165/168
f 176/165/168 208/7/168 209/68/169 177/81/169
f 177/81/169 209/68/169 210/47/170 178/70/170
f 178/70/170 210/47/170 211/46/171 179/66/171
f 179/66/171 211/46/171 212/166/172 180/64/172
f 180/64/172 212/166/172 213/53/173 181/62/173
f 181/62/173 213/53/173 214/37/174 182/58/174
f 182/58/174 214/37/174 215/23/175 183/56/175
f 183/56/175 215/23/175 216/24/176 184/41/176
f 184/41/176 216/24/176 217/60/177 185/43/177
f 185/43/177 217/60/177 218/24/178 186/41/178
f 186/41/178 218/24/178 219/23/179 187/35/179
f 187/35/179 219/23/179 220/37/180 188/32/180
f 188/32/180 220/37/180 221/53/181 189/20/181
f 189/20/181 221/53/181 222/4/182 190/15/182
f 190/15/182 222/4/182 223/3/183 191/16/183
f 191/16/183 223/3/183 224/47/153 192/152/153
f 161/33/154 194/153/154 193/7/184 162/30/184
f 162/30/184 193/7/184 195/51/155 163/18/155
f 32/82/5 31/13/5 191/16/5 192/152/5
f 6/71/5 5/9/5 165/12/5 166/155/5
f 46/49/17 50/167/185 197/154/185 196/50/17
f 1/33/5 32/82/5 192/152/5 161/33/5
f 106/45/15 110/1/186 212/166/186 211/46/15
f 7/72/5 6/71/5 166/155/5 167/156/5
f 8/73/5 7/72/5 167/156/5 168/157/5
f 62/38/13 66/168/187 201/158/187 200/39/13
f 122/22/11 126/21/188 216/24/188 215/23/11
f 34/169/189 38/170/190 193/7/190 194/153/189
f 9/74/5 8/73/5 168/157/5 169/159/5
f 10/73/5 9/74/5 169/159/5 170/157/5
f 78/26/9 82/167/191 205/154/191 204/27/9
f 138/22/7 142/36/192 220/37/192 219/23/7
f 11/75/5 10/73/5 170/157/5 171/160/5
f 94/6/4 98/67/24 209/68/24 208/7/4
f 12/76/5 11/75/5 171/160/5 172/161/5
f 154/2/2 158/171/193 224/47/193 223/3/2
f 13/77/5 12/76/5 172/161/5 173/162/5
f 50/167/185 54/26/23 198/27/23 197/154/185
f 110/1/186 114/52/22 213/53/22 212/166/186
f 14/78/5 13/77/5 173/162/5 174/163/5
f 15/79/5 14/78/5 174/163/5 175/164/5
f 66/168/187 70/38/21 202/39/21 201/158/187
f 126/21/188 130/59/20 217/60/20 216/24/188
f 16/80/5 15/79/5 175/164/5 176/165/5
f 17/81/5 16/80/5 176/165/5 177/81/5
f 82/167/191 86/49/19 206/54/19 205/154/191
f 142/36/192 146/52/18 221/53/18 220/37/192
f 18/69/5 17/81/5 177/81/5 178/70/5
f 158/171/193 34/169/189 194/153/189 224/47/193
f 38/170/190 42/48/16 195/51/16 193/7/190
s 0
f 265/172/194 266/173/194 247/174/194 227/175/194
f 266/172/195 265/173/195 228/174/195 248/175/195
f 266/172/196 267/173/196 245/174/196 247/175/196
f 267/172/197 266/173/197 248/174/197 246/175/197
f 267/172/198 265/173/198 227/174/198 245/175/198
f 265/172/199 267/173/199 246/174/199 228/175/199
f 268/172/200 269/173/200 253/174/200 231/175/200
f 269/172/201 268/173/201 232/174/201 254/175/201
f 269/172/202 270/173/202 247/174/202 253/175/202
f 270/172/203 269/173/203 254/174/203 248/175/203
f 270/172/204 268/173/204 231/174/204 247/175/204
f 268/172/205 270/173/205 248/174/205 232/175/205
f 271/172/206 272/173/206 259/174/206 239/175/206
f 272/172/207 271/173/207 240/174/207 260/175/207
f 272/172/208 273/173/208 253/174/208 259/175/208
f 273/172/209 272/173/209 260/174/209 254/175/209
f 273/172/210 271/173/210 239/174/210 253/175/210
f 271/172/211 273/173/211 254/174/211 240/175/211
f 274/172/212 275/173/212 245/174/212 235/175/212
f 275/172/213 274/173/213 236/174/213 246/175/213
f 275/172/214 276/173/214 259/174/214 245/175/214
f 276/172/215 275/173/215 246/174/215 260/175/215
f 276/172/216 274/173/216 235/174/216 259/175/216
f 274/172/217 276/173/217 260/174/217 236/175/217
f 277/172/218 278/173/218 225/174/218 237/175/218
f 278/172/219 277/173/219 238/174/219 226/175/219
f 278/172/220 279/173/220 229/174/220 225/175/220
f 279/172/221 278/173/221 226/174/221 230/175/221
f 279/172/222 277/173/222 237/174/222 229/175/222
f 277/172/223 279/173/223 230/174/223 238/175/223
f 280/172/224 281/173/224 235/174/224 231/175/224
f 281/172/225 280/173/225 232/174/225 236/175/225
f 281/172/226 282/173/226 239/174/226 235/175/226
f 282/172/227 281/173/227 236/174/227 240/175/227
f 282/172/228 280/173/228 231/174/228 239/175/228
f 280/172/229 282/173/229 240/174/229 232/175/229
f 283/172/230 284/173/230 225/174/230 263/175/230
f 284/172/231 283/173/231 264/174/231 226/175/231
f 284/172/232 285/173/232 233/174/232 225/175/232
f 285/172/233 284/173/233 226/174/233 234/175/233
f 285/172/234 283/173/234 263/174/234 233/175/234
f 283/172/235 285/173/235 234/174/235 264/175/235
f 286/172/236 287/173/236 241/174/236 261/175/236
f 287/172/237 286/173/237 262/174/237 242/175/237
f 287/172/238 288/173/238 263/174/238 241/175/238
f 288/172/239 287/173/239 242/174/239 264/175/239
f 288/172/240 286/173/240 261/174/240 263/175/240
f 286/172/241 288/173/241 264/174/241 262/175/241
f 289/172/242 290/173/242 243/174/242 259/175/242
f 290/172/243 289/173/243 260/174/243 244/175/243
f 290/172/244 291/173/244 261/174/244 243/175/244
f 291/172/245 290/173/245 244/174/245 262/175/245
f 291/172/246 289/173/246 259/174/246 261/175/246
f 289/172/247 291/173/247 262/174/247 260/175/247
f 292/172/248 293/173/248 233/174/248 257/175/248
f 293/172/249 292/173/249 258/174/249 234/175/249
f 293/172/250 294/173/250 237/174/250 233/175/250
f 294/172/251 293/173/251 234/174/251 238/175/251
f 294/172/252 292/173/252 257/174/252 237/175/252
f 292/172/253 294/173/253 238/174/253 258/175/253
f 295/172/254 296/173/254 263/174/254 255/175/254
f 296/172/255 295/173/255 256/174/255 264/175/255
f 296/172/256 297/173/256 257/174/256 263/175/256
f 297/172/257 296/173/257 264/174/257 258/175/257
f 297/172/258 295/173/258 255/174/258 257/175/258
f 295/172/259 297/173/259 258/174/259 256/175/259
f 298/172/260 299/173/260 261/174/260 253/175/260
f 299/172/261 298/173/261 254/174/261 262/175/261
f 299/172/262 300/173/262 255/174/262 261/175/262
f 300/172/263 299/173/263 262/174/263 256/175/263
f 300/172/264 298/173/264 253/174/264 255/175/264
f 298/172/265 300/173/265 256/174/265 254/175/265
f 301/172/266 302/173/266 237/174/266 251/175/266
f 302/172/267 301/173/267 252/174/267 238/175/267
f 302/172/268 303/173/268 229/174/268 237/175/268
f 303/172/269 302/173/269 238/174/269 230/175/269
f 303/172/270 301/173/270 251/174/270 229/175/270
f 301/172/271 303/173/271 230/174/271 252/175/271
f 304/172/272 305/173/272 257/174/272 249/175/272
f 305/172/273 304/173/273 250/174/273 258/175/273
f 305/172/274 306/173/274 251/174/274 257/175/274
f 306/172/275 305/173/275 258/174/275 252/175/275
f 306/172/276 304/173/276 249/174/276 251/175/276
f 304/172/277 306/173/277 252/174/277 250/175/277
f 307/172/278 308/173/278 255/174/278 247/175/278
f 308/172/279 307/173/279 248/174/279 256/175/279
f 308/172/280 309/173/280 249/174/280 255/175/280
f 309/172/281 308/173/281 256/174/281 250/175/281
f 309/172/282 307/173/282 247/174/282 249/175/282
f 307/172/283 309/173/283 250/174/283 248/175/283
f 310/172/284 311/173/284 229/174/284 241/175/284
f 311/172/285 310/173/285 242/174/285 230/175/285
f 311/172/286 312/173/286 225/174/286 229/175/286
f 312/172/287 311/173/287 230/174/287 226/175/287
f 312/172/288 310/173/288 241/174/288 225/175/288
f 310/172/289 312/173/289 226/174/289 242/175/289
f 313/172/290 314/173/290 251/174/290 243/175/290
f 314/172/291 313/173/291 244/174/291 252/175/291
f 314/172/292 315/173/292 241/174/292 251/175/292
f 315/172/293 314/173/293 252/174/293 242/175/293
f 315/172/294 313/173/294 243/174/294 241/175/294
f 313/172/295 315/173/295 242/174/295 244/175/295
f 316/172/296 317/173/296 249/174/296 245/175/296
f 317/172/297 316/173/297 246/174/297 250/175/297
f 317/172/298 318/173/298 243/174/298 249/175/298
f 318/172/299 317/173/299 250/174/299 244/175/299
f 318/172/300 316/173/300 245/174/300 243/175/300
f 316/172/301 318/173/301 244/174/301 246/175/301
f 319/172/302 320/173/302 231/174/302 227/175/302
f 320/172/303 319/173/303 228/174/303 232/175/303
f 320/172/304 321/173/304 247/174/304 231/175/304
f 321/172/305 320/173/305 232/174/305 248/175/305
f 321/172/306 319/173/306 227/174/306 247/175/306
f 319/172/307 321/173/307 248/174/307 228/175/307
f 322/172/308 323/173/308 239/174/308 231/175/308
f 323/172/309 322/173/309 232/174/309 240/175/309
f 323/172/310 324/173/310 253/174/310 239/175/310
f 324/172/311 323/173/311 240/174/311 254/175/311
f 324/172/312 322/173/312 231/174/312 253/175/312
f 322/172/313 324/173/313 254/174/313 232/175/313
f 325/172/314 326/173/314 235/174/314 239/175/314
f 326/172/315 325/173/315 240/174/315 236/175/315
f 326/172/316 327/173/316 259/174/316 235/175/316
f 327/172/317 326/173/317 236/174/317 260/175/317
f 327/172/318 325/173/318 239/174/318 259/175/318
f 325/172/319 327/173/319 260/174/319 240/175/319
f 328/172/320 329/173/320 227/174/320 235/175/320
f 329/172/321 328/173/321 236/174/321 228/175/321
f 329/172/322 330/173/322 245/174/322 227/175/322
f 330/172/323 329/173/323 228/174/323 246/175/323
f 330/172/324 328/173/324 235/174/324 245/175/324
f 328/172/325 330/173/325 246/174/325 236/175/325
f 331/172/326 332/173/326 233/174/326 237/175/326
f 332/172/327 331/173/327 238/174/327 234/175/327
f 332/172/328 333/173/328 225/174/328 233/175/328
f 333/172/329 332/173/329 234/174/329 226/175/329
f 333/172/330 331/173/330 237/174/330 225/175/330
f 331/172/331 333/173/331 226/174/331 238/175/331
f 334/172/332 335/173/332 227/174/332 231/175/332
f 335/172/333 334/173/333 232/174/333 228/175/333
f 335/172/334 336/173/334 235/174/334 227/175/334
f 336/172/335 335/173/335 228/174/335 236/175/335
f 336/172/336 334/173/336 231/174/336 235/175/336
f 334/172/337 336/173/337 236/174/337 232/175/337
f 337/172/338 338/173/338 241/174/338 263/175/338
f 338/172/339 337/173/339 264/174/339 242/175/339
f 338/172/340 339/173/340 225/174/340 241/175/340
f 339/172/341 338/173/341 242/174/341 226/175/341
f 339/172/342 337/173/342 263/174/342 225/175/342
f 337/172/343 339/173/343 226/174/343 264/175/343
f 340/172/344 341/173/344 243/174/344 261/175/344
f 341/172/345 340/173/345 262/174/345 244/175/345
f 341/172/346 342/173/346 241/174/346 243/175/346
f 342/172/347 341/173/347 244/174/347 242/175/347
f 342/172/348 340/173/348 261/174/348 241/175/348
f 340/172/349 342/173/349 242/174/349 262/175/349
f 343/172/350 344/173/350 245/174/350 259/175/350
f 344/172/351 343/173/351 260/174/351 246/175/351
f 344/172/352 345/173/352 243/174/352 245/175/352
f 345/172/353 344/173/353 246/174/353 244/175/353
f 345/172/354 343/173/354 259/174/354 243/175/354
f 343/172/355 345/173/355 244/174/355 260/175/355
f 346/172/356 347/173/356 263/174/356 257/175/356
f 347/172/357 346/173/357 258/174/357 264/175/357
f 347/172/358 348/173/358 233/174/358 263/175/358
f 348/172/359 347/173/359 264/174/359 234/175/359
f 348/172/360 346/173/360 257/174/360 233/175/360
f 346/172/361 348/173/361 234/174/361 258/175/361
f 349/172/362 350/173/362 261/174/362 255/175/362
f 350/172/363 349/173/363 256/174/363 262/175/363
f 350/172/364 351/173/364 263/174/364 261/175/364
f 351/172/365 350/173/365 262/174/365 264/175/365
f 351/172/366 349/173/366 255/174/366 263/175/366
f 349/172/367 351/173/367 264/174/367 256/175/367
f 352/172/368 353/173/368 259/174/368 253/175/368
f 353/172/369 352/173/369 254/174/369 260/175/369
f 353/172/370 354/173/370 261/174/370 259/175/370
f 354/172/371 353/173/371 260/174/371 262/175/371
f 354/172/372 352/173/372 253/174/372 261/175/372
f 352/172/373 354/173/373 262/174/373 254/175/373
f 355/172/374 356/173/374 257/174/374 251/175/374
f 356/172/375 355/173/375 252/174/375 258/175/375
f 356/172/376 357/173/376 237/174/376 257/175/376
f 357/172/377 356/173/377 258/174/377 238/175/377
f 357/172/378 355/173/378 251/174/378 237/175/378
f 355/172/379 357/173/379 238/174/379 252/175/379
f 358/172/380 359/173/380 255/174/380 249/175/380
f 359/172/381 358/173/381 250/174/381 256/175/381
f 359/172/382 360/173/382 257/174/382 255/175/382
f 360/172/383 359/173/383 256/174/383 258/175/383
f 360/172/384 358/173/384 249/174/384 257/175/384
f 358/172/385 360/173/385 258/174/385 250/175/385
f 361/172/386 362/173/386 253/174/386 247/175/386
f 362/172/387 361/173/387 248/174/387 254/175/387
f 362/172/388 363/173/388 255/174/388 253/175/388
f 363/172/389 362/173/389 254/174/389 256/175/389
f 363/172/390 361/173/390 247/174/390 255/175/390
f 361/172/391 363/173/391 256/174/391 248/175/391
f 364/172/392 365/173/392 251/174/392 241/175/392
f 365/172/393 364/173/393 242/174/393 252/175/393
f 365/172/394 366/173/394 229/174/394 251/175/394
f 366/172/395 365/173/395 252/174/395 230/175/395
f 366/172/396 364/173/396 241/174/396 229/175/396
f 364/172/397 366/173/397 230/174/397 242/175/397
f 367/172/398 368/173/398 249/174/398 243/175/398
f 368/172/399 367/173/399 244/174/399 250/175/399
f 368/172/400 369/173/400 251/174/400 249/175/400
f 369/172/401 368/173/401 250/174/401 252/175/401
f 369/172/402 367/173/402 243/174/402 251/175/402
f 367/172/403 369/173/403 252/174/403 244/175/403
f 370/172/404 371/173/404 247/174/404 245/175/404
f 371/172/405 370/173/405 246/174/405 248/175/405
f 371/172/406 372/173/406 249/174/406 247/175/406
f 372/172/407 371/173/407 248/174/407 250/175/407
f 372/172/408 370/173/408 245/174/408 249/175/408
f 370/172/409 372/173/409 250/174/409 246/175/409
s 1
f 397/176/410 395/177/411 502/178/411 503/179/410
f 375/180/412 376/181/413 378/182/414 377/183/414
f 377/183/414 378/182/414 380/184/415 379/185/416
f 390/186/417 392/187/418 500/188/419 498/189/420
f 380/184/421 382/190/422 492/191/423 489/192/424
f 383/185/425 384/184/426 386/182/427 385/183/427
f 385/183/427 386/182/427 388/181/428 387/180/429
f 395/177/430 396/193/431 501/194/432 502/178/433
f 376/181/413 375/180/412 486/195/434 487/196/435
f 391/197/436 392/187/437 394/198/438 393/199/438
f 393/199/438 394/198/438 396/193/431 395/177/430
f 391/197/439 389/200/440 497/201/440 499/202/439
f 381/203/441 379/185/442 490/204/442 491/205/441
f 399/177/443 400/193/444 402/198/445 401/199/445
f 510/206/446 509/207/447 408/208/448 409/209/449
f 401/199/445 402/198/445 404/187/450 403/197/451
f 404/187/452 374/186/453 488/189/454 507/188/455
f 373/200/5 375/180/5 377/183/5 379/185/5 381/203/5 383/185/5 385/183/5 387/180/5 389/200/5 391/197/5 393/199/5 395/177/5 397/176/5 399/177/5 401/199/5 403/197/5
f 407/210/456 406/211/457 426/212/458 430/213/459
f 512/214/460 511/215/461 413/216/462 414/217/463
f 514/218/464 513/219/465 418/220/466 419/221/467
f 516/222/468 515/223/469 406/224/457 407/225/456
f 518/223/470 517/222/471 411/225/472 412/224/473
f 520/226/474 519/219/475 416/220/476 417/227/477
f 521/207/478 510/206/446 409/209/449 410/208/479
f 522/218/480 512/214/460 414/217/463 415/221/481
f 523/214/482 514/218/464 419/221/467 420/217/483
f 509/207/447 516/222/468 407/225/456 408/208/448
f 511/215/461 518/223/470 412/224/473 413/216/462
f 515/223/469 524/215/484 405/216/485 406/224/457
f 513/219/465 520/226/474 417/227/477 418/220/466
f 517/222/471 521/207/478 410/208/479 411/225/472
f 519/219/475 522/218/480 415/221/481 416/220/476
f 524/215/484 523/214/482 420/217/483 405/216/485
f 405/228/485 420/229/483 482/230/486 421/231/487
f 406/211/457 405/228/485 421/231/487 426/212/458
f 415/232/481 414/229/463 458/230/488 462/233/489
f 408/234/448 407/210/456 430/213/459 434/235/490
f 416/236/476 415/232/481 462/233/489 466/237/491
f 409/238/449 408/234/448 434/235/490 438/239/492
f 417/240/477 416/236/476 466/237/491 470/241/493
f 410/234/479 409/238/449 438/239/492 442/235/494
f 418/236/466 417/240/477 470/241/493 474/237/495
f 411/210/472 410/234/479 442/235/494 446/213/496
f 419/232/467 418/236/466 474/237/495 478/233/497
f 412/211/473 411/210/472 446/213/496 450/212/498
f 420/229/483 419/232/467 478/233/497 482/230/486
f 413/228/462 412/211/473 450/212/498 454/231/499
f 414/229/463 413/228/462 454/231/499 458/230/488
f 426/242/458 421/243/487 423/244/500 428/245/501
f 428/245/501 423/244/500 424/246/502 427/247/503
f 427/247/503 424/246/502 422/248/504 425/249/505
f 430/250/459 426/242/458 428/245/501 432/251/506
f 432/251/506 428/245/501 427/247/503 431/252/507
f 431/252/507 427/247/503 425/249/505 429/253/508
f 434/254/490 430/250/459 432/251/506 436/255/509
f 436/255/509 432/251/506 431/252/507 435/256/510
f 435/256/510 431/252/507 429/253/508 433/257/511
f 438/258/492 434/254/490 436/255/509 440/259/512
f 440/259/512 436/255/509 435/256/510 439/260/513
f 439/260/513 435/256/510 433/257/511 437/261/514
f 442/254/494 438/258/492 440/259/512 444/255/515
f 444/255/515 440/259/512 439/260/513 443/256/516
f 443/256/516 439/260/513 437/261/514 441/257/517
f 446/250/496 442/254/494 444/255/515 448/251/518
f 448/251/518 444/255/515 443/256/516 447/252/519
f 447/252/519 443/256/516 441/257/517 445/253/520
f 450/242/498 446/250/496 448/251/518 452/245/521
f 452/245/521 448/251/518 447/252/519 451/247/522
f 451/247/522 447/252/519 445/253/520 449/249/523
f 454/243/499 450/242/498 452/245/521 456/244/524
f 456/244/524 452/245/521 451/247/522 455/246/525
f 455/246/525 451/247/522 449/249/523 453/248/526
f 458/262/488 454/243/499 456/244/524 460/263/527
f 460/263/527 456/244/524 455/246/525 459/264/528
f 459/264/528 455/246/525 453/248/526 457/265/529
f 462/266/489 458/262/488 460/263/527 464/267/530
f 464/267/530 460/263/527 459/264/528 463/268/531
f 463/268/531 459/264/528 457/265/529 461/269/532
f 466/270/491 462/266/489 464/267/530 468/271/533
f 468/271/533 464/267/530 463/268/531 467/272/534
f 467/272/534 463/268/531 461/269/532 465/273/535
f 470/274/493 466/270/491 468/271/533 472/275/536
f 472/275/536 468/271/533 467/272/534 471/276/537
f 471/276/537 467/272/534 465/273/535 469/277/538
f 474/270/495 470/274/493 472/275/536 476/271/539
f 476/271/539 472/275/536 471/276/537 475/272/540
f 475/272/540 471/276/537 469/277/538 473/273/541
f 478/266/497 474/270/495 476/271/539 480/267/542
f 480/267/542 476/271/539 475/272/540 479/268/543
f 479/268/543 475/272/540 473/273/541 477/269/544
f 482/262/486 478/266/497 480/267/542 484/263/545
f 484/263/545 480/267/542 479/268/543 483/264/546
f 483/264/546 479/268/543 477/269/544 481/265/547
f 421/243/487 482/262/486 484/263/545 423/244/500
f 423/244/500 484/263/545 483/264/546 424/246/502
f 424/246/502 483/264/546 481/265/547 422/248/504
f 425/249/505 422/248/504 481/265/547 477/269/544 473/273/541 469/277/538 465/273/535 461/269/532 457/265/529 453/248/526 449/249/523 445/253/520 441/257/517 437/261/514 433/257/511 429/253/508
f 485/201/548 488/189/454 487/196/435 486/195/434
f 490/204/549 489/192/424 492/191/423 491/205/550
f 491/205/550 492/191/423 494/192/551 493/204/552
f 496/195/553 495/196/554 498/189/420 497/201/555
f 497/201/555 498/189/420 500/188/419 499/202/556
f 502/178/433 501/194/432 504/278/557 503/179/558
f 503/179/558 504/278/557 506/194/559 505/178/560
f 508/202/561 507/188/455 488/189/454 485/201/548
f 392/187/437 391/197/436 499/202/556 500/188/419
f 396/193/562 398/279/563 504/278/557 501/194/432
f 383/185/564 381/203/441 491/205/441 493/204/564
f 387/180/429 388/181/428 495/196/554 496/195/553
f 382/190/422 384/184/565 494/192/551 492/191/423
f 389/200/440 387/180/566 496/195/566 497/201/440
f 399/177/567 397/176/410 503/179/410 505/178/567
f 375/180/568 373/200/569 485/201/569 486/195/568
f 384/184/426 383/185/425 493/204/552 494/192/551
f 403/197/451 404/187/450 507/188/455 508/202/561
f 388/181/570 390/186/417 498/189/420 495/196/554
f 398/279/563 400/193/571 506/194/559 504/278/557
f 374/186/453 376/181/572 487/196/435 488/189/454
f 373/200/569 403/197/573 508/202/573 485/201/569
f 379/185/416 380/184/415 489/192/424 490/204/549
f 400/193/444 399/177/443 505/178/560 506/194/559
f 374/186/453 404/187/452 523/214/482 524/215/484
f 396/193/574 394/198/575 522/218/480 519/219/475
f 386/182/576 384/184/565 521/207/478 517/222/471
f 400/193/577 398/279/578 520/226/474 513/219/465
f 376/181/572 374/186/453 524/215/484 515/223/469
f 390/186/417 388/181/570 518/223/470 511/215/461
f 380/184/421 378/182/579 516/222/468 509/207/447
f 404/187/452 402/198/580 514/218/464 523/214/482
f 394/198/575 392/187/418 512/214/460 522/218/480
f 384/184/565 382/190/422 510/206/446 521/207/478
f 398/279/578 396/193/574 519/219/475 520/226/474
f 388/181/570 386/182/576 517/222/471 518/223/470
f 378/182/579 376/181/572 515/223/469 516/222/468
f 402/198/580 400/193/577 513/219/465 514/218/464
f 392/187/418 390/186/417 511/215/461 512/214/460
f 382/190/422 380/184/421 509/207/447 510/206/446
