# Blender 4.3.2
# www.blender.org
mtllib Radar.mtl
o Cube
v 0.356537 0.953677 -0.356537
v 0.399767 1.046323 -0.399767
v 0.962691 0.017212 -0.962690
v 1.037309 -0.017212 -1.037310
v 0.356537 0.953677 0.356537
v 0.399767 1.046323 0.399767
v 0.962689 0.017209 0.962690
v 1.037311 -0.017209 1.037310
v -0.356537 0.953677 -0.356537
v -0.399767 1.046323 -0.399767
v -0.962689 0.017209 -0.962690
v -1.037311 -0.017209 -1.037310
v -0.356537 0.953677 0.356537
v -0.399767 1.046323 0.399767
v -0.962691 0.017212 0.962690
v -1.037309 -0.017212 1.037310
v -0.244163 1.000000 -0.322652
v 0.322652 1.000000 0.244163
v 0.322652 1.000000 -0.322652
v 0.361467 0.925901 0.424230
v -0.849612 0.047131 0.970692
v 0.907929 0.047131 0.970692
v -0.424230 0.925901 0.361467
v -0.970692 0.047131 -0.849612
v -0.970692 0.047131 0.907929
v 0.866011 0.000000 -0.944500
v -0.944500 0.000000 0.866011
v -0.944500 0.000000 -0.944500
v 0.424230 0.925901 -0.361467
v 0.970692 0.047131 0.849612
v 0.970692 0.047131 -0.907929
v -0.361467 0.925901 -0.424230
v 0.849612 0.047131 -0.970692
v -0.907929 0.047131 -0.970692
v -0.322652 1.000000 -0.244163
v -0.322652 1.000000 0.322652
v 0.244163 1.000000 0.322652
v 0.227764 0.952869 0.407460
v -0.344697 0.952869 0.407460
v -0.815385 0.195951 0.878148
v -0.407460 0.952869 0.227764
v -0.407460 0.952869 -0.344697
v -0.878148 0.195951 -0.815385
v 0.944500 0.000000 -0.866011
v 0.944500 0.000000 0.944500
v -0.866011 0.000000 0.944500
v 0.407460 0.952869 -0.227764
v 0.407460 0.952869 0.344697
v 0.878148 0.195951 0.815385
v -0.227764 0.952869 -0.407460
v 0.344697 0.952869 -0.407460
v 0.815385 0.195951 -0.878148
v 0.101274 2.610342 -0.707107
v 0.549824 2.025794 -0.500000
v 0.274153 2.846772 0.000000
v 0.672068 2.192975 0.000000
v 0.101274 2.610342 0.707107
v 0.549824 2.025794 0.500000
v -0.316092 2.039549 1.000000
v 0.254701 1.622182 0.707107
v -0.733459 1.468755 0.707107
v -0.040422 1.218570 0.500000
v -0.906338 1.232325 0.000000
v -0.162666 1.051389 0.000000
v -0.733459 1.468755 -0.707107
v -0.040422 1.218570 -0.500000
v -0.316092 2.039549 -1.000000
v 0.254701 1.622182 -0.707107
v 0.403455 1.428485 -0.000000
v 0.415307 1.444694 -0.048476
v 0.443919 1.483824 -0.068555
v 0.472532 1.522955 -0.048476
v 0.484384 1.539163 -0.000000
v 0.472532 1.522955 0.048476
v 0.443919 1.483824 0.068555
v 0.415307 1.444694 0.048476
v -1.210993 2.608976 -0.000000
v -1.199141 2.625185 -0.048476
v -1.170529 2.664315 -0.068555
v -1.141916 2.703446 -0.048476
v -1.130064 2.719654 -0.000000
v -1.141916 2.703446 0.048476
v -1.170529 2.664315 0.068555
v -1.199141 2.625185 0.048476
v 0.325549 2.318068 -0.603553
v 0.473110 2.519874 0.000000
v 0.325549 2.318068 0.603553
v -0.030696 1.830865 0.853553
v -0.386941 1.343663 0.603553
v -0.534502 1.141857 0.000000
v -0.386941 1.343663 -0.603553
v -0.030696 1.830865 -0.853553
vn 0.8643 0.2968 0.4060
vn -0.4060 0.2968 -0.8643
vn -0.1865 -0.8897 -0.4167
vn 0.1865 -0.8897 0.4167
vn -0.4575 0.7925 -0.4034
vn 0.4575 0.7925 0.4034
vn -0.6673 0.3307 0.6673
vn -0.4858 -0.8350 0.2585
vn 0.3726 0.8224 -0.4299
vn -0.2456 -0.6479 0.7211
vn 0.8473 0.4838 0.2191
vn 0.5932 0.3155 -0.7407
vn -0.6865 -0.3621 0.6306
vn -0.7779 0.5968 0.1968
vn -0.7510 0.1737 -0.6371
vn 0.6220 -0.3843 0.6822
vn -0.7211 -0.6479 -0.2456
vn -0.2191 0.4838 0.8473
vn 0.7510 0.1737 0.6371
vn 0.4858 -0.8350 -0.2585
vn -0.3726 0.8224 0.4299
vn -0.6220 -0.3843 -0.6822
vn -0.1968 0.5968 -0.7778
vn -0.5832 -0.4160 0.6977
vn 0.6977 -0.4160 -0.5832
vn -0.5932 0.3155 0.7407
vn 0.6865 -0.3621 -0.6306
vn 0.6278 -0.4603 0.6277
vn 0.7211 -0.6479 0.2456
vn 0.2191 0.4838 -0.8473
vn 0.1968 0.5968 0.7778
vn 0.2456 -0.6479 -0.7211
vn -0.8473 0.4838 -0.2191
vn 0.7779 0.5968 -0.1968
vn 0.4060 0.2968 0.8643
vn 0.6673 0.3307 -0.6673
vn -0.8643 0.2968 -0.4060
vn -0.7177 -0.2786 0.6382
vn 0.4543 -0.5180 0.7248
vn 0.6969 0.6949 0.1772
vn -0.6382 -0.2785 -0.7177
vn -0.7248 -0.5179 0.4543
vn -0.1772 0.6949 0.6969
vn -0.6977 -0.4160 0.5832
vn -0.6278 -0.4603 -0.6277
vn 0.5832 -0.4160 -0.6977
vn 0.6382 -0.2785 0.7177
vn 0.7248 -0.5179 -0.4543
vn 0.1772 0.6949 -0.6969
vn 0.7177 -0.2786 -0.6382
vn -0.4543 -0.5180 -0.7248
vn -0.6969 0.6949 -0.1772
vn 0.3089 -0.2259 -0.9239
vn 0.6945 0.3015 -0.6533
vn 0.9612 -0.2759 -0.0000
vn 0.9016 -0.3574 -0.2437
vn 0.8529 0.0226 -0.5216
vn 0.9804 0.1970 -0.0000
vn 0.8542 0.5199 -0.0000
vn 0.9016 -0.3574 0.2437
vn 0.8529 0.0226 0.5216
vn 0.6945 0.3015 0.6533
vn 0.7578 -0.5541 0.3446
vn 0.5450 -0.3985 0.7377
vn 0.3089 -0.2259 0.9239
vn 0.6140 -0.7508 0.2437
vn 0.2371 -0.8196 0.5216
vn -0.0767 -0.7532 0.6533
vn 0.6140 -0.7508 -0.2437
vn 0.5544 -0.8323 -0.0000
vn 0.1096 -0.9940 -0.0000
vn 0.2371 -0.8196 -0.5216
vn -0.2364 -0.9717 -0.0000
vn 0.7578 -0.5541 -0.3446
vn 0.5450 -0.3985 -0.7377
vn -0.0767 -0.7532 -0.6533
vn 0.5902 0.8072 -0.0000
vn 0.4174 0.5708 0.7071
vn 0.8328 0.0711 0.5490
vn 0.9670 0.2547 -0.0000
vn 0.5088 -0.3720 0.7764
vn 0.1847 -0.8152 0.5490
vn 0.0505 -0.9987 -0.0000
vn 0.1847 -0.8152 -0.5490
vn 0.5088 -0.3720 -0.7764
vn 0.8328 0.0711 -0.5490
vn -0.4174 -0.5708 -0.7071
vn -0.0000 -0.0000 -1.0000
vn -0.4174 -0.5708 0.7071
vn -0.5902 -0.8072 -0.0000
vn -0.0000 -0.0000 1.0000
vn 0.4174 0.5708 -0.7071
vt 0.386811 0.767755
vt 0.386811 0.713300
vt 0.384511 0.710045
vt 0.384511 0.778551
vt 0.389112 0.782704
vt 0.389112 0.705892
vt 0.389112 0.705892
vt 0.383131 0.709571
vt 0.339488 0.825922
vt 0.338002 0.836786
vt 0.336293 0.843954
vt 0.339488 0.657072
vt 0.338002 0.651811
vt 0.336293 0.644642
vt 0.383131 0.785055
vt 0.339488 0.837554
vt 0.338002 0.836785
vt 0.384511 0.778551
vt 0.336293 0.843954
vt 0.337148 0.661099
vt 0.337148 0.835038
vt 0.338002 0.651811
vt 0.336293 0.644642
vt 0.383131 0.703542
vt 0.339488 0.651042
vt 0.383131 0.779025
vt 0.339488 0.662674
vt 0.339488 0.831524
vt 0.386811 0.775296
vt 0.386811 0.720841
vt 0.384471 0.722416
vt 0.384471 0.777414
vt 0.346879 0.822634
vt 0.384471 0.783444
vt 0.346879 0.828663
vt 0.337148 0.653558
vt 0.337148 0.827497
vt 0.384471 0.705153
vt 0.346879 0.659933
vt 0.384471 0.766180
vt 0.384471 0.711182
vt 0.346879 0.665963
vt 0.348657 0.755288
vt 0.380167 0.755232
vt 0.380064 0.687299
vt 0.348569 0.697304
vt 0.296246 0.748794
vt 0.296249 0.750723
vt 0.317074 0.707308
vt 0.317044 0.687411
vt 0.380021 0.659161
vt 0.348532 0.673286
vt 0.348569 0.697304
vt 0.296256 0.755380
vt 0.317147 0.755344
vt 0.380167 0.755232
vt 0.348657 0.755288
vt 0.296263 0.760038
vt 0.317220 0.803379
vt 0.380271 0.823165
vt 0.348745 0.813272
vt 0.296266 0.761967
vt 0.317250 0.823276
vt 0.380313 0.851304
vt 0.348782 0.837290
vt 0.317147 0.755344
vt 0.348745 0.813272
vt 0.474511 0.759723
vt 0.474514 0.761652
vt 0.474504 0.755066
vt 0.474497 0.750409
vt 0.474494 0.748480
vt 0.499337 0.517989
vt 0.508061 0.385049
vt 0.456928 0.385422
vt 0.456977 0.518297
vt 0.516883 0.517862
vt 0.529241 0.384896
vt 0.508061 0.385049
vt 0.456977 0.518297
vt 0.456928 0.385421
vt 0.414618 0.518605
vt 0.405796 0.385793
vt 0.397072 0.518733
vt 0.384616 0.385947
vt 0.405796 0.385793
s 1
usemtl Material
f 17/1/1 18/2/2 5/3/3 9/4/4
f 18/2/2 17/1/1 10/5/5 6/6/6
f 18/2/2 19/2/7 1/3/8 5/3/3
f 19/2/7 18/2/2 6/6/6 2/7/9
f 19/2/7 17/1/1 9/4/4 1/3/8
f 17/1/1 19/2/7 2/7/9 10/5/5
f 20/8/10 21/9/11 15/10/12 5/3/3
f 21/9/11 20/8/10 6/6/6 16/11/13
f 21/9/11 22/12/14 7/13/15 15/10/12
f 22/12/14 21/9/11 16/11/13 8/14/16
f 22/12/14 20/8/10 5/3/3 7/13/15
f 20/8/10 22/12/14 8/14/16 6/6/6
f 23/15/17 24/16/18 11/17/19 13/18/20
f 24/16/18 23/15/17 14/5/21 12/19/22
f 24/16/18 25/16/23 15/10/12 11/17/19
f 25/16/23 24/16/18 12/19/22 16/11/13
f 25/16/23 23/15/17 13/18/20 15/10/12
f 23/15/17 25/16/23 16/11/13 14/5/21
f 26/20/24 27/21/25 15/10/12 3/22/26
f 27/21/25 26/20/24 4/23/27 16/11/13
f 27/21/25 28/21/28 11/17/19 15/10/12
f 28/21/28 27/21/25 16/11/13 12/19/22
f 28/21/28 26/20/24 3/22/26 11/17/19
f 26/20/24 28/21/28 12/19/22 4/23/27
f 29/24/29 30/25/30 7/13/15 1/3/8
f 30/25/30 29/24/29 2/7/9 8/14/16
f 30/25/30 31/25/31 3/22/26 7/13/15
f 31/25/31 30/25/30 8/14/16 4/23/27
f 31/25/31 29/24/29 1/3/8 3/22/26
f 29/24/29 31/25/31 4/23/27 2/7/9
f 32/26/32 33/27/33 3/22/26 9/4/4
f 33/27/33 32/26/32 10/5/5 4/23/27
f 33/27/33 34/28/34 11/17/19 3/22/26
f 34/28/34 33/27/33 4/23/27 12/19/22
f 34/28/34 32/26/32 9/4/4 11/17/19
f 32/26/32 34/28/34 12/19/22 10/5/5
f 35/29/35 36/29/36 13/18/20 9/4/4
f 36/29/36 35/29/35 10/5/5 14/5/21
f 36/29/36 37/30/37 5/3/3 13/18/20
f 37/30/37 36/29/36 14/5/21 6/6/6
f 37/30/37 35/29/35 9/4/4 5/3/3
f 35/29/35 37/30/37 6/6/6 10/5/5
f 38/31/38 39/32/39 13/18/20 5/3/3
f 39/32/39 38/31/38 6/6/6 14/5/21
f 39/32/39 40/33/40 15/10/12 13/18/20
f 40/33/40 39/32/39 14/5/21 16/11/13
f 40/33/40 38/31/38 5/3/3 15/10/12
f 38/31/38 40/33/40 16/11/13 6/6/6
f 41/34/41 42/34/42 9/4/4 13/18/20
f 42/34/42 41/34/41 14/5/21 10/5/5
f 42/34/42 43/35/43 11/17/19 9/4/4
f 43/35/43 42/34/42 10/5/5 12/19/22
f 43/35/43 41/34/41 13/18/20 11/17/19
f 41/34/41 43/35/43 12/19/22 14/5/21
f 44/36/44 45/36/45 7/13/15 3/22/26
f 45/36/45 44/36/44 4/23/27 8/14/16
f 45/36/45 46/37/46 15/10/12 7/13/15
f 46/37/46 45/36/45 8/14/16 16/11/13
f 46/37/46 44/36/44 3/22/26 15/10/12
f 44/36/44 46/37/46 16/11/13 4/23/27
f 47/38/47 48/38/48 5/3/3 1/3/8
f 48/38/48 47/38/47 2/7/9 6/6/6
f 48/38/48 49/39/49 7/13/15 5/3/3
f 49/39/49 48/38/48 6/6/6 8/14/16
f 49/39/49 47/38/47 1/3/8 7/13/15
f 47/38/47 49/39/49 8/14/16 2/7/9
f 50/40/50 51/41/51 1/3/8 9/4/4
f 51/41/51 50/40/50 10/5/5 2/7/9
f 51/41/51 52/42/52 3/22/26 1/3/8
f 52/42/52 51/41/51 2/7/9 4/23/27
f 52/42/52 50/40/50 9/4/4 3/22/26
f 50/40/50 52/42/52 4/23/27 10/5/5
f 92/43/53 67/44/53 53/45/54 85/46/54
f 73/47/55 72/48/56 54/49/57 56/50/58
f 85/46/54 53/45/54 55/51/59 86/52/59
f 74/48/60 73/47/55 56/50/58 58/49/61
f 86/52/59 55/51/59 57/45/62 87/53/62
f 75/54/63 74/48/60 58/49/61 60/55/64
f 87/53/62 57/45/62 59/56/65 88/57/65
f 76/58/66 75/54/63 60/55/64 62/59/67
f 88/57/65 59/56/65 61/60/68 89/61/68
f 70/58/69 69/62/70 64/63/71 66/59/72
f 89/61/68 61/60/68 63/64/73 90/65/73
f 72/48/56 71/54/74 68/66/75 54/49/57
f 71/54/74 70/58/69 66/59/72 68/66/75
f 90/65/73 63/64/73 65/60/76 91/67/76
f 91/67/76 65/60/76 67/44/53 92/43/53
f 69/62/77 70/58/78 78/68/79 77/69/80
f 69/62/70 76/58/66 62/59/67 64/63/71
f 77/69/80 78/68/79 79/70/81 80/71/82 81/72/83 82/71/84 83/70/85 84/68/86
f 74/48/87 75/54/88 83/70/85 82/71/84
f 72/48/89 73/47/90 81/72/83 80/71/82
f 70/58/78 71/54/91 79/70/81 78/68/79
f 76/58/92 69/62/77 77/69/80 84/68/86
f 75/54/88 76/58/92 84/68/86 83/70/85
f 73/47/90 74/48/87 82/71/84 81/72/83
f 71/54/91 72/48/89 80/71/82 79/70/81
f 66/73/72 91/74/76 92/75/53 68/76/75
f 64/77/71 90/78/73 91/74/76 66/73/72
f 62/73/67 89/79/68 90/78/73 64/77/71
f 60/80/64 88/81/65 89/79/68 62/73/67
f 58/82/61 87/83/62 88/81/65 60/80/64
f 56/84/58 86/85/59 87/83/62 58/82/61
f 54/82/57 85/86/54 86/85/59 56/84/58
f 68/76/75 92/75/53 85/86/54 54/82/57
