# Blender 4.3.2
# www.blender.org
mtllib Missile.mtl
o Cylinder
v 0.000000 -4.523483 -1.000000
v 0.000000 -1.224901 -1.044023
v 0.382683 -4.523483 -0.923880
v 0.399530 -1.224901 -0.964551
v 0.707107 -4.523483 -0.707107
v 0.738236 -1.224901 -0.738236
v 0.923880 -4.523483 -0.382683
v 0.964551 -1.224901 -0.399530
v 1.000000 -4.523483 0.000000
v 1.044023 -1.224901 -0.000000
v 0.923880 -4.523483 0.382683
v 0.964551 -1.224901 0.399530
v 0.707107 -4.523483 0.707107
v 0.738236 -1.224901 0.738236
v 0.382683 -4.523483 0.923880
v 0.399530 -1.224901 0.964551
v 0.000000 -4.523483 1.000000
v 0.000000 -1.224901 1.044023
v -0.382683 -4.523483 0.923880
v -0.399530 -1.224901 0.964551
v -0.707107 -4.523483 0.707107
v -0.738236 -1.224901 0.738236
v -0.923880 -4.523483 0.382683
v -0.964551 -1.224901 0.399530
v -1.000000 -4.523483 0.000000
v -1.044023 -1.224901 -0.000000
v -0.923880 -4.523483 -0.382683
v -0.964551 -1.224901 -0.399530
v -0.707107 -4.523483 -0.707107
v -0.738236 -1.224901 -0.738236
v -0.382683 -4.523483 -0.923880
v -0.399530 -1.224901 -0.964551
v 0.404753 3.760245 -0.977161
v -0.000000 3.760245 -1.057672
v 0.747887 3.760245 -0.747887
v 0.977161 3.760245 -0.404754
v 1.057672 3.760245 -0.000000
v 0.977161 3.760245 0.404754
v 0.747887 3.760245 0.747887
v 0.404753 3.760245 0.977161
v -0.000000 3.760245 1.057672
v -0.404754 3.760245 0.977161
v -0.747887 3.760245 0.747887
v -0.977162 3.760245 0.404754
v -1.057672 3.760245 -0.000000
v -0.977162 3.760245 -0.404754
v -0.747887 3.760245 -0.747887
v -0.404754 3.760245 -0.977161
v 0.035618 6.224176 -0.085989
v 0.400505 4.163761 -0.966905
v 0.144413 6.118795 -0.348644
v 0.242740 5.816361 -0.586025
v 0.322334 5.360588 -0.778183
v 0.376755 4.795408 -0.909568
v -0.000000 4.163761 -1.046570
v -0.000000 6.224176 -0.093074
v -0.000000 4.795408 -0.984509
v -0.000000 5.360588 -0.842299
v -0.000000 5.816361 -0.634309
v -0.000000 6.118795 -0.377370
v 0.065813 6.224176 -0.065813
v 0.740037 4.163761 -0.740037
v 0.266841 6.118795 -0.266841
v 0.448524 5.816361 -0.448524
v 0.595595 5.360588 -0.595595
v 0.696153 4.795408 -0.696153
v 0.085989 6.224176 -0.035618
v 0.966905 4.163761 -0.400505
v 0.348644 6.118795 -0.144413
v 0.586025 5.816361 -0.242740
v 0.778183 5.360588 -0.322334
v 0.909568 4.795408 -0.376755
v 0.093074 6.224176 0.000000
v 1.046570 4.163761 -0.000000
v 0.377370 6.118795 0.000000
v 0.634309 5.816361 -0.000000
v 0.842299 5.360588 -0.000000
v 0.984509 4.795408 -0.000000
v 0.085989 6.224176 0.035618
v 0.966905 4.163761 0.400505
v 0.348644 6.118795 0.144413
v 0.586025 5.816361 0.242740
v 0.778183 5.360588 0.322334
v 0.909568 4.795408 0.376756
v 0.065813 6.224176 0.065813
v 0.740037 4.163761 0.740037
v 0.266841 6.118795 0.266841
v 0.448524 5.816361 0.448524
v 0.595595 5.360588 0.595595
v 0.696153 4.795408 0.696153
v 0.035618 6.224176 0.085989
v 0.400505 4.163761 0.966905
v 0.144413 6.118795 0.348644
v 0.242740 5.816361 0.586025
v 0.322334 5.360588 0.778183
v 0.376755 4.795408 0.909568
v -0.000000 6.224176 0.093074
v -0.000000 4.163761 1.046570
v -0.000000 6.118795 0.377370
v -0.000000 5.816361 0.634309
v -0.000000 5.360588 0.842299
v -0.000000 4.795408 0.984509
v -0.035618 6.224176 0.085989
v -0.400505 4.163761 0.966905
v -0.144413 6.118795 0.348644
v -0.242740 5.816361 0.586025
v -0.322334 5.360588 0.778183
v -0.376756 4.795408 0.909568
v -0.065814 6.224176 0.065813
v -0.740037 4.163761 0.740037
v -0.266841 6.118795 0.266841
v -0.448524 5.816361 0.448524
v -0.595596 5.360588 0.595595
v -0.696153 4.795408 0.696153
v -0.085990 6.224176 0.035618
v -0.966905 4.163761 0.400505
v -0.348644 6.118795 0.144413
v -0.586026 5.816361 0.242740
v -0.778183 5.360588 0.322334
v -0.909568 4.795408 0.376756
v -0.093074 6.224176 -0.000000
v -1.046570 4.163761 -0.000000
v -0.377370 6.118795 -0.000000
v -0.634309 5.816361 -0.000000
v -0.842299 5.360588 -0.000000
v -0.984510 4.795408 -0.000000
v -0.085990 6.224176 -0.035618
v -0.966905 4.163761 -0.400505
v -0.348644 6.118795 -0.144413
v -0.586026 5.816361 -0.242740
v -0.778183 5.360588 -0.322334
v -0.909568 4.795408 -0.376756
v -0.065813 6.224176 -0.065813
v -0.740037 4.163761 -0.740037
v -0.266841 6.118795 -0.266841
v -0.448524 5.816361 -0.448524
v -0.595596 5.360588 -0.595595
v -0.696153 4.795408 -0.696153
v -0.035618 6.224176 -0.085989
v -0.400505 4.163761 -0.966905
v -0.144413 6.118795 -0.348644
v -0.242740 5.816361 -0.586025
v -0.322334 5.360588 -0.778183
v -0.376756 4.795408 -0.909568
v 0.418275 1.267672 -1.009806
v 0.772872 1.267672 -0.772872
v 0.772872 1.267672 0.772872
v 0.418275 1.267672 1.009806
v -1.009806 1.267672 0.418275
v -1.093006 1.267672 -0.000000
v 1.093006 1.267672 -0.000000
v 1.009806 1.267672 0.418275
v -0.418276 1.267672 1.009806
v -0.772872 1.267672 0.772872
v -0.772872 1.267672 -0.772872
v -0.418276 1.267672 -1.009806
v 1.009806 1.267672 -0.418275
v -0.000000 1.267672 1.093006
v -1.009806 1.267672 -0.418275
v -0.000000 1.267672 -1.093006
v 0.000000 -5.649421 -1.000000
v 0.382683 -5.649421 -0.923880
v 0.707107 -5.649421 -0.707107
v 0.923880 -5.649421 -0.382683
v 1.000000 -5.649421 0.000000
v 0.923880 -5.649421 0.382683
v 0.707107 -5.649421 0.707107
v 0.382683 -5.649421 0.923880
v 0.000000 -5.649421 1.000000
v -0.382683 -5.649421 0.923880
v -0.707107 -5.649421 0.707107
v -0.923880 -5.649421 0.382683
v -1.000000 -5.649421 0.000000
v -0.923880 -5.649421 -0.382683
v -0.707107 -5.649421 -0.707107
v -0.382683 -5.649421 -0.923880
v 0.000000 -5.340183 -2.507946
v 0.338435 -5.340183 -2.402851
v 2.402851 -5.340183 -0.338435
v 2.507946 -5.340183 0.000000
v 2.402851 -5.340183 0.338435
v 0.338435 -5.340183 2.402851
v 0.000000 -5.340183 2.507946
v -0.338435 -5.340183 2.402851
v -2.402851 -5.340183 0.338435
v -2.507946 -5.340183 0.000000
v -2.402851 -5.340183 -0.338435
v -0.338435 -5.340183 -2.402851
v 0.000000 -6.194842 -2.507946
v 0.338435 -6.194842 -2.402851
v 2.402851 -6.194842 -0.338435
v 2.507946 -6.194842 0.000000
v 2.402851 -6.194842 0.338435
v 0.338435 -6.194842 2.402851
v 0.000000 -6.194842 2.507946
v -0.338435 -6.194842 2.402851
v -2.402851 -6.194842 0.338435
v -2.507946 -6.194842 0.000000
v -2.402851 -6.194842 -0.338435
v -0.338435 -6.194842 -2.402851
vn -0.0000 -0.0133 -0.9999
vn -0.0000 -0.0165 -0.9999
vn 0.3826 -0.0165 -0.9238
vn 0.3826 -0.0133 -0.9238
vn 0.7070 -0.0165 -0.7070
vn 0.7070 -0.0133 -0.7070
vn 0.9238 -0.0165 -0.3826
vn 0.9238 -0.0133 -0.3826
vn 0.9999 -0.0165 -0.0000
vn 0.9999 -0.0133 -0.0000
vn 0.9238 -0.0165 0.3826
vn 0.9238 -0.0133 0.3826
vn 0.7070 -0.0165 0.7070
vn 0.7070 -0.0133 0.7070
vn 0.3826 -0.0165 0.9238
vn 0.3826 -0.0133 0.9238
vn -0.0000 -0.0165 0.9999
vn -0.0000 -0.0133 0.9999
vn -0.3826 -0.0165 0.9238
vn -0.3826 -0.0133 0.9238
vn -0.7070 -0.0165 0.7070
vn -0.7070 -0.0133 0.7070
vn -0.9238 -0.0165 0.3826
vn -0.9238 -0.0133 0.3826
vn -0.9999 -0.0165 -0.0000
vn -0.9999 -0.0133 -0.0000
vn -0.9238 -0.0165 -0.3826
vn -0.9238 -0.0133 -0.3826
vn -0.7070 -0.0165 -0.7070
vn -0.7070 -0.0133 -0.7070
vn 0.7071 -0.0027 -0.7071
vn 0.3827 -0.0027 -0.9239
vn 0.3826 0.0208 -0.9237
vn 0.7070 0.0208 -0.7070
vn -0.3826 -0.0165 -0.9238
vn -0.3826 -0.0133 -0.9238
vn 0.8230 -0.0000 -0.5680
vn 0.7071 -0.0000 -0.7071
vn 0.8988 -0.0000 -0.4384
vn -0.0000 0.0208 -0.9998
vn -0.3826 0.0208 -0.9237
vn -0.3819 0.0624 -0.9221
vn -0.0000 0.0624 -0.9981
vn 0.3827 -0.0027 0.9239
vn 0.7071 -0.0027 0.7071
vn 0.7070 0.0208 0.7070
vn 0.3826 0.0208 0.9237
vn -1.0000 -0.0027 -0.0000
vn -0.9239 -0.0027 0.3827
vn -0.9237 0.0208 0.3826
vn -0.9998 0.0208 -0.0000
vn 0.9239 -0.0027 0.3827
vn 1.0000 -0.0027 -0.0000
vn 0.9998 0.0208 -0.0000
vn 0.9237 0.0208 0.3826
vn -0.7071 -0.0027 0.7071
vn -0.3827 -0.0027 0.9239
vn -0.3826 0.0208 0.9237
vn -0.7070 0.0208 0.7070
vn -0.3827 -0.0027 -0.9239
vn -0.7071 -0.0027 -0.7071
vn -0.7070 0.0208 -0.7070
vn 0.9239 -0.0027 -0.3827
vn 0.9237 0.0208 -0.3826
vn -0.0000 -0.0027 1.0000
vn -0.0000 0.0208 0.9998
vn -0.9239 -0.0027 -0.3827
vn -0.9237 0.0208 -0.3826
vn -0.0000 -0.0027 -1.0000
vn 0.3819 0.0624 -0.9221
vn 0.7057 0.0624 -0.7057
vn -0.7057 0.0624 0.7057
vn -0.9221 0.0624 0.3819
vn 0.9221 0.0624 -0.3819
vn 0.9981 0.0624 -0.0000
vn -0.9981 0.0624 -0.0000
vn 0.9221 0.0624 0.3819
vn -0.9221 0.0624 -0.3819
vn 0.7057 0.0624 0.7057
vn -0.7057 0.0624 -0.7057
vn 0.3819 0.0624 0.9221
vn -0.0000 0.0624 0.9981
vn -0.3819 0.0624 0.9221
vn 0.0757 0.9803 -0.1827
vn -0.0000 0.9803 -0.1978
vn -0.0757 0.9803 -0.1827
vn -0.1398 0.9803 -0.1398
vn -0.1827 0.9803 -0.0757
vn -0.1978 0.9803 -0.0000
vn -0.1827 0.9803 0.0757
vn -0.1398 0.9803 0.1398
vn -0.0757 0.9803 0.1827
vn -0.0000 0.9803 0.1978
vn 0.0757 0.9803 0.1827
vn 0.1398 0.9803 0.1398
vn 0.1827 0.9803 0.0757
vn 0.1978 0.9803 -0.0000
vn 0.1827 0.9803 -0.0757
vn 0.1398 0.9803 -0.1398
vn -0.0000 0.1698 -0.9855
vn 0.3771 0.1698 -0.9105
vn -0.0000 0.3275 -0.9449
vn 0.3616 0.3275 -0.8729
vn -0.0000 0.5288 -0.8487
vn 0.3248 0.5288 -0.7841
vn -0.0000 0.8045 -0.5939
vn 0.2273 0.8045 -0.5487
vn 0.6968 0.1698 -0.6968
vn 0.6681 0.3275 -0.6681
vn 0.6002 0.5288 -0.6002
vn 0.4200 0.8045 -0.4200
vn 0.9105 0.1698 -0.3771
vn 0.8729 0.3275 -0.3616
vn 0.7841 0.5288 -0.3248
vn 0.5487 0.8045 -0.2273
vn 0.9855 0.1698 -0.0000
vn 0.9449 0.3275 -0.0000
vn 0.8487 0.5288 -0.0000
vn 0.5939 0.8045 -0.0000
vn 0.9105 0.1698 0.3771
vn 0.8729 0.3275 0.3616
vn 0.7841 0.5288 0.3248
vn 0.5487 0.8045 0.2273
vn 0.6968 0.1698 0.6968
vn 0.6681 0.3275 0.6681
vn 0.6002 0.5288 0.6002
vn 0.4200 0.8045 0.4200
vn 0.3771 0.1698 0.9105
vn 0.3616 0.3275 0.8729
vn 0.3248 0.5288 0.7841
vn 0.2273 0.8045 0.5487
vn -0.0000 0.1698 0.9855
vn -0.0000 0.3275 0.9449
vn -0.0000 0.5288 0.8487
vn -0.0000 0.8045 0.5939
vn -0.3771 0.1698 0.9105
vn -0.3616 0.3275 0.8729
vn -0.3248 0.5288 0.7841
vn -0.2273 0.8045 0.5487
vn -0.6968 0.1698 0.6968
vn -0.6681 0.3275 0.6681
vn -0.6002 0.5288 0.6002
vn -0.4200 0.8045 0.4200
vn -0.9105 0.1698 0.3771
vn -0.8729 0.3275 0.3616
vn -0.7841 0.5288 0.3248
vn -0.5487 0.8045 0.2273
vn -0.9855 0.1698 -0.0000
vn -0.9449 0.3275 -0.0000
vn -0.8487 0.5288 -0.0000
vn -0.5939 0.8045 -0.0000
vn -0.9105 0.1698 -0.3771
vn -0.8729 0.3275 -0.3616
vn -0.7841 0.5288 -0.3248
vn -0.5487 0.8045 -0.2273
vn -0.6968 0.1698 -0.6968
vn -0.6681 0.3275 -0.6681
vn -0.6002 0.5288 -0.6002
vn -0.4200 0.8045 -0.4200
vn -0.3771 0.1698 -0.9105
vn -0.3616 0.3275 -0.8729
vn -0.3248 0.5288 -0.7841
vn -0.2273 0.8045 -0.5487
vn -0.0000 -1.0000 -0.0000
vn 0.7071 -0.0000 0.7071
vn 0.8230 -0.0000 0.5680
vn 0.8988 -0.0000 0.4384
vn -0.4812 0.8766 -0.0000
vn -0.4777 0.8703 -0.1200
vn -0.0000 0.8766 -0.4812
vn 0.1200 0.8703 -0.4777
vn -0.8230 -0.0000 0.5680
vn -0.7071 -0.0000 0.7071
vn -0.8988 -0.0000 0.4384
vn -0.7071 -0.0000 -0.7071
vn -0.8230 -0.0000 -0.5680
vn -0.8647 -0.4103 -0.2898
vn 0.5680 -0.0000 -0.8230
vn 0.4384 -0.0000 -0.8988
vn 0.1200 0.8703 0.4777
vn -0.0000 0.8766 0.4812
vn -0.4384 -0.0000 0.8988
vn -0.5680 -0.0000 0.8230
vn -0.0299 -0.0000 0.9996
vn 0.0299 -0.0000 -0.9996
vn 0.5680 -0.0000 0.8230
vn 0.4384 -0.0000 0.8988
vn 0.4812 0.8766 -0.0000
vn 0.4777 0.8703 0.1200
vn 0.3429 -0.9354 0.0862
vn 0.3442 -0.9389 -0.0000
vn -0.3429 -0.9354 -0.0862
vn -0.3442 -0.9389 -0.0000
vn -0.5680 -0.0000 -0.8230
vn -0.4384 -0.0000 -0.8988
vn -0.9550 -0.0000 0.2966
vn -1.0000 -0.0000 -0.0000
vn 1.0000 -0.0000 -0.0000
vn 0.9550 -0.0000 0.2966
vn 0.2966 -0.0000 0.9550
vn -0.0000 -0.0000 1.0000
vn -0.0000 -0.0000 -1.0000
vn 0.2966 -0.0000 -0.9550
vn -0.9550 -0.0000 -0.2966
vn -0.2966 -0.0000 -0.9550
vn 0.9550 -0.0000 -0.2966
vn -0.2966 -0.0000 0.9550
vn -0.0000 -0.9389 -0.3442
vn -0.0862 -0.9354 -0.3429
vn 0.0299 -0.0000 0.9996
vn -0.0862 -0.9354 0.3429
vn -0.0000 -0.9389 0.3442
vn -0.4931 -0.8222 0.2844
vn 0.0862 -0.9354 -0.3429
vn -0.1200 0.8703 -0.4777
vn -0.0299 -0.0000 -0.9996
vn 0.4777 0.8703 -0.1200
vn 0.9996 -0.0000 -0.0299
vn -0.1200 0.8703 0.4777
vn -0.9996 -0.0000 0.0299
vn -0.3429 -0.9354 0.0862
vn 0.9996 -0.0000 0.0299
vn 0.3429 -0.9354 -0.0862
vn -0.9996 -0.0000 -0.0299
vn -0.4777 0.8703 0.1200
vt 0.166527 0.885653
vt 0.166527 0.955231
vt 0.157830 0.955231
vt 0.157830 0.885653
vt 0.149133 0.955231
vt 0.149133 0.885653
vt 0.140435 0.955231
vt 0.140435 0.885653
vt 0.131738 0.955231
vt 0.131738 0.885653
vt 0.123041 0.955231
vt 0.123041 0.885653
vt 0.114344 0.955231
vt 0.114344 0.885653
vt 0.105646 0.955231
vt 0.105646 0.885653
vt 0.096949 0.955231
vt 0.096949 0.885653
vt 0.088252 0.955231
vt 0.088252 0.885653
vt 0.079554 0.955231
vt 0.079554 0.885653
vt 0.070857 0.955231
vt 0.070857 0.885653
vt 0.062160 0.955231
vt 0.062160 0.885653
vt 0.053462 0.955231
vt 0.053462 0.885653
vt 0.044765 0.955231
vt 0.044765 0.885653
vt 0.036068 0.955231
vt 0.036068 0.885653
vt 0.027371 0.955231
vt 0.027371 0.885653
vt 0.731767 0.674007
vt 0.733152 0.513713
vt 0.573334 0.514015
vt 0.571963 0.672627
vt 0.729209 0.970192
vt 0.730383 0.834302
vt 0.570593 0.831239
vt 0.569432 0.965703
vt 0.734326 0.377822
vt 0.574495 0.379551
vt 0.243032 0.277874
vt 0.237196 0.279035
vt 0.231361 0.277874
vt 0.226414 0.274568
vt 0.223108 0.269621
vt 0.221947 0.263786
vt 0.223108 0.257950
vt 0.226414 0.253003
vt 0.231361 0.249698
vt 0.237196 0.248537
vt 0.243032 0.249698
vt 0.247979 0.253003
vt 0.251284 0.257950
vt 0.252445 0.263786
vt 0.251284 0.269621
vt 0.247979 0.274568
vt 0.166334 0.955231
vt 0.158023 0.955231
vt 0.307616 0.590239
vt 0.322782 0.590239
vt 0.321759 0.590239
vt 0.308640 0.590239
vt 0.295205 0.418224
vt 0.242704 0.428667
vt 0.237196 0.367630
vt 0.276936 0.359726
vt 0.237196 0.325612
vt 0.260856 0.320906
vt 0.157637 0.955231
vt 0.149326 0.955231
vt 0.291744 0.590239
vt 0.306911 0.590239
vt 0.305887 0.590239
vt 0.292768 0.590239
vt 0.349890 0.384269
vt 0.305382 0.414008
vt 0.310625 0.337215
vt 0.280914 0.307504
vt 0.148939 0.955231
vt 0.140629 0.955231
vt 0.275873 0.590239
vt 0.291039 0.590239
vt 0.290015 0.590239
vt 0.276896 0.590239
vt 0.387419 0.331972
vt 0.357679 0.376480
vt 0.333136 0.303525
vt 0.294316 0.287446
vt 0.140242 0.955231
vt 0.131931 0.955231
vt 0.260001 0.590239
vt 0.275167 0.590239
vt 0.274144 0.590239
vt 0.261025 0.590239
vt 0.402077 0.269294
vt 0.391634 0.321794
vt 0.341041 0.263786
vt 0.299022 0.263786
vt 0.131545 0.955231
vt 0.123234 0.955231
vt 0.244129 0.590239
vt 0.259296 0.590239
vt 0.258272 0.590239
vt 0.245153 0.590239
vt 0.391634 0.205777
vt 0.402077 0.258278
vt 0.333136 0.224046
vt 0.294316 0.240126
vt 0.122848 0.955231
vt 0.114537 0.955231
vt 0.228258 0.590239
vt 0.243424 0.590239
vt 0.242400 0.590239
vt 0.229281 0.590239
vt 0.357679 0.151092
vt 0.387419 0.195600
vt 0.310625 0.190357
vt 0.280914 0.220068
vt 0.114150 0.955231
vt 0.105840 0.955231
vt 0.212386 0.590239
vt 0.227552 0.590239
vt 0.226529 0.590239
vt 0.213410 0.590239
vt 0.305382 0.113563
vt 0.349890 0.143302
vt 0.276936 0.167846
vt 0.260856 0.206666
vt 0.105453 0.955231
vt 0.097142 0.955231
vt 0.196514 0.590239
vt 0.211680 0.590239
vt 0.210657 0.590239
vt 0.197538 0.590239
vt 0.242704 0.098905
vt 0.295205 0.109348
vt 0.237196 0.159941
vt 0.237196 0.201959
vt 0.096756 0.955231
vt 0.088445 0.955231
vt 0.180643 0.590239
vt 0.195809 0.590239
vt 0.194785 0.590239
vt 0.181666 0.590239
vt 0.179188 0.109348
vt 0.231688 0.098905
vt 0.197457 0.167846
vt 0.213536 0.206666
vt 0.088058 0.955231
vt 0.079748 0.955231
vt 0.164771 0.590239
vt 0.179937 0.590239
vt 0.178913 0.590239
vt 0.165794 0.590239
vt 0.124502 0.143302
vt 0.169010 0.113563
vt 0.163767 0.190357
vt 0.193478 0.220068
vt 0.079361 0.955231
vt 0.071050 0.955231
vt 0.148899 0.590239
vt 0.164065 0.590239
vt 0.163042 0.590239
vt 0.149923 0.590239
vt 0.086974 0.195600
vt 0.116713 0.151092
vt 0.141256 0.224046
vt 0.180076 0.240126
vt 0.070664 0.955231
vt 0.062353 0.955231
vt 0.133027 0.590239
vt 0.148194 0.590239
vt 0.147170 0.590239
vt 0.134051 0.590239
vt 0.072315 0.258278
vt 0.082758 0.205777
vt 0.133352 0.263786
vt 0.175370 0.263786
vt 0.061966 0.955231
vt 0.053656 0.955231
vt 0.117156 0.590239
vt 0.132322 0.590239
vt 0.131298 0.590239
vt 0.118179 0.590239
vt 0.082758 0.321794
vt 0.072315 0.269294
vt 0.141256 0.303525
vt 0.180076 0.287446
vt 0.053269 0.955231
vt 0.044958 0.955231
vt 0.101284 0.590239
vt 0.116450 0.590239
vt 0.115427 0.590239
vt 0.102308 0.590239
vt 0.116713 0.376480
vt 0.086974 0.331972
vt 0.163767 0.337215
vt 0.193478 0.307504
vt 0.044572 0.955231
vt 0.036261 0.955231
vt 0.085412 0.590239
vt 0.100579 0.590239
vt 0.099555 0.590239
vt 0.086436 0.590239
vt 0.169010 0.414008
vt 0.124502 0.384269
vt 0.197457 0.359726
vt 0.213536 0.320906
vt 0.035875 0.955231
vt 0.027564 0.955231
vt 0.069541 0.590239
vt 0.084707 0.590239
vt 0.083683 0.590239
vt 0.070564 0.590239
vt 0.231688 0.428667
vt 0.179188 0.418224
vt 0.131738 0.884261
vt 0.144519 0.881719
vt 0.155354 0.874479
vt 0.162594 0.863644
vt 0.165136 0.850863
vt 0.162594 0.838083
vt 0.155354 0.827248
vt 0.144519 0.820008
vt 0.131738 0.817466
vt 0.118957 0.820008
vt 0.108122 0.827248
vt 0.100883 0.838083
vt 0.098341 0.850863
vt 0.100883 0.863644
vt 0.108122 0.874479
vt 0.118957 0.881719
s 1
usemtl Material.001
f 1/1/1 2/2/2 4/3/3 3/4/4
f 3/4/4 4/3/3 6/5/5 5/6/6
f 5/6/6 6/5/5 8/7/7 7/8/8
f 7/8/8 8/7/7 10/9/9 9/10/10
f 9/10/10 10/9/9 12/11/11 11/12/12
f 11/12/12 12/11/11 14/13/13 13/14/14
f 13/14/14 14/13/13 16/15/15 15/16/16
f 15/16/16 16/15/15 18/17/17 17/18/18
f 17/18/18 18/17/17 20/19/19 19/20/20
f 19/20/20 20/19/19 22/21/21 21/22/22
f 21/22/22 22/21/21 24/23/23 23/24/24
f 23/24/24 24/23/23 26/25/25 25/26/26
f 25/26/26 26/25/25 28/27/27 27/28/28
f 27/28/28 28/27/27 30/29/29 29/30/30
f 146/5/31 145/3/32 33/3/33 35/5/34
f 29/30/30 30/29/29 32/31/35 31/32/36
f 31/32/36 32/31/35 2/33/2 1/34/1
f 3/4/37 5/6/38 163/6/38 162/4/39
f 34/35/40 48/36/41 140/37/42 55/38/43
f 148/15/44 147/13/45 39/13/46 40/15/47
f 150/25/48 149/23/49 44/23/50 45/25/51
f 152/11/52 151/9/53 37/9/54 38/11/55
f 154/21/56 153/19/57 42/19/58 43/21/59
f 156/31/60 155/29/61 47/29/62 48/31/41
f 157/7/63 146/5/31 35/5/34 36/7/64
f 158/17/65 148/15/44 40/15/47 41/17/66
f 159/27/67 150/25/48 45/25/51 46/27/68
f 145/3/32 160/2/69 34/2/40 33/3/33
f 147/13/45 152/11/52 38/11/55 39/13/46
f 149/23/49 154/21/56 43/21/59 44/23/50
f 160/33/69 156/31/60 48/31/41 34/33/40
f 151/9/53 157/7/63 36/7/64 37/9/54
f 153/19/57 158/17/65 41/17/66 42/19/58
f 155/29/61 159/27/67 46/27/68 47/29/62
f 35/39/34 33/40/33 50/41/70 62/42/71
f 44/36/50 43/43/59 110/44/72 116/37/73
f 37/35/54 36/40/64 68/41/74 74/38/75
f 45/35/51 44/36/50 116/37/73 122/38/76
f 38/36/55 37/35/54 74/38/75 80/37/77
f 46/40/68 45/35/51 122/38/76 128/41/78
f 39/43/46 38/36/55 80/37/77 86/44/79
f 47/39/62 46/40/68 128/41/78 134/42/80
f 40/40/47 39/39/46 86/42/79 92/41/81
f 48/36/41 47/43/62 134/44/80 140/37/42
f 41/35/66 40/40/47 92/41/81 98/38/82
f 42/36/58 41/35/66 98/38/82 104/37/83
f 49/45/84 56/46/85 139/47/86 133/48/87 127/49/88 121/50/89 115/51/90 109/52/91 103/53/92 97/54/93 91/55/94 85/56/95 79/57/96 73/58/97 67/59/98 61/60/99
f 36/40/64 35/39/34 62/42/71 68/41/74
f 43/43/59 42/36/58 104/37/83 110/44/72
f 50/3/70 55/2/43 57/61/100 54/62/101
f 54/63/101 57/64/100 58/65/102 53/66/103
f 53/67/103 58/68/102 59/69/104 52/70/105
f 52/70/105 59/69/104 60/71/106 51/72/107
f 51/72/107 60/71/106 56/46/85 49/45/84
f 62/5/71 50/3/70 54/73/101 66/74/108
f 66/75/108 54/76/101 53/77/103 65/78/109
f 65/79/109 53/80/103 52/70/105 64/81/110
f 64/81/110 52/70/105 51/72/107 63/82/111
f 63/82/111 51/72/107 49/45/84 61/60/99
f 68/7/74 62/5/71 66/83/108 72/84/112
f 72/85/112 66/86/108 65/87/109 71/88/113
f 71/89/113 65/90/109 64/81/110 70/91/114
f 70/91/114 64/81/110 63/82/111 69/92/115
f 69/92/115 63/82/111 61/60/99 67/59/98
f 74/9/75 68/7/74 72/93/112 78/94/116
f 78/95/116 72/96/112 71/97/113 77/98/117
f 77/99/117 71/100/113 70/91/114 76/101/118
f 76/101/118 70/91/114 69/92/115 75/102/119
f 75/102/119 69/92/115 67/59/98 73/58/97
f 80/11/77 74/9/75 78/103/116 84/104/120
f 84/105/120 78/106/116 77/107/117 83/108/121
f 83/109/121 77/110/117 76/101/118 82/111/122
f 82/111/122 76/101/118 75/102/119 81/112/123
f 81/112/123 75/102/119 73/58/97 79/57/96
f 86/13/79 80/11/77 84/113/120 90/114/124
f 90/115/124 84/116/120 83/117/121 89/118/125
f 89/119/125 83/120/121 82/111/122 88/121/126
f 88/121/126 82/111/122 81/112/123 87/122/127
f 87/122/127 81/112/123 79/57/96 85/56/95
f 92/15/81 86/13/79 90/123/124 96/124/128
f 96/125/128 90/126/124 89/127/125 95/128/129
f 95/129/129 89/130/125 88/121/126 94/131/130
f 94/131/130 88/121/126 87/122/127 93/132/131
f 93/132/131 87/122/127 85/56/95 91/55/94
f 98/17/82 92/15/81 96/133/128 102/134/132
f 102/135/132 96/136/128 95/137/129 101/138/133
f 101/139/133 95/140/129 94/131/130 100/141/134
f 100/141/134 94/131/130 93/132/131 99/142/135
f 99/142/135 93/132/131 91/55/94 97/54/93
f 104/19/83 98/17/82 102/143/132 108/144/136
f 108/145/136 102/146/132 101/147/133 107/148/137
f 107/149/137 101/150/133 100/141/134 106/151/138
f 106/151/138 100/141/134 99/142/135 105/152/139
f 105/152/139 99/142/135 97/54/93 103/53/92
f 110/21/72 104/19/83 108/153/136 114/154/140
f 114/155/140 108/156/136 107/157/137 113/158/141
f 113/159/141 107/160/137 106/151/138 112/161/142
f 112/161/142 106/151/138 105/152/139 111/162/143
f 111/162/143 105/152/139 103/53/92 109/52/91
f 116/23/73 110/21/72 114/163/140 120/164/144
f 120/165/144 114/166/140 113/167/141 119/168/145
f 119/169/145 113/170/141 112/161/142 118/171/146
f 118/171/146 112/161/142 111/162/143 117/172/147
f 117/172/147 111/162/143 109/52/91 115/51/90
f 122/25/76 116/23/73 120/173/144 126/174/148
f 126/175/148 120/176/144 119/177/145 125/178/149
f 125/179/149 119/180/145 118/171/146 124/181/150
f 124/181/150 118/171/146 117/172/147 123/182/151
f 123/182/151 117/172/147 115/51/90 121/50/89
f 128/27/78 122/25/76 126/183/148 132/184/152
f 132/185/152 126/186/148 125/187/149 131/188/153
f 131/189/153 125/190/149 124/181/150 130/191/154
f 130/191/154 124/181/150 123/182/151 129/192/155
f 129/192/155 123/182/151 121/50/89 127/49/88
f 134/29/80 128/27/78 132/193/152 138/194/156
f 138/195/156 132/196/152 131/197/153 137/198/157
f 137/199/157 131/200/153 130/191/154 136/201/158
f 136/201/158 130/191/154 129/192/155 135/202/159
f 135/202/159 129/192/155 127/49/88 133/48/87
f 140/31/42 134/29/80 138/203/156 144/204/160
f 144/205/160 138/206/156 137/207/157 143/208/161
f 143/209/161 137/210/157 136/201/158 142/211/162
f 142/211/162 136/201/158 135/202/159 141/212/163
f 141/212/163 135/202/159 133/48/87 139/47/86
f 55/33/43 140/31/42 144/213/160 57/214/100
f 57/215/100 144/216/160 143/217/161 58/218/102
f 58/219/102 143/220/161 142/211/162 59/69/104
f 59/69/104 142/211/162 141/212/163 60/71/106
f 60/71/106 141/212/163 139/47/86 56/46/85
f 33/40/33 34/35/40 55/38/43 50/41/70
f 30/29/29 28/27/27 159/27/67 155/29/61
f 20/19/19 18/17/17 158/17/65 153/19/57
f 10/9/9 8/7/7 157/7/63 151/9/53
f 2/33/2 32/31/35 156/31/60 160/33/69
f 24/23/23 22/21/21 154/21/56 149/23/49
f 14/13/13 12/11/11 152/11/52 147/13/45
f 4/3/3 2/2/2 160/2/69 145/3/32
f 28/27/27 26/25/25 150/25/48 159/27/67
f 18/17/17 16/15/15 148/15/44 158/17/65
f 8/7/7 6/5/5 146/5/31 157/7/63
f 32/31/35 30/29/29 155/29/61 156/31/60
f 22/21/21 20/19/19 153/19/57 154/21/56
f 12/11/11 10/9/9 151/9/53 152/11/52
f 26/25/25 24/23/23 149/23/49 150/25/48
f 16/15/15 14/13/13 147/13/45 148/15/44
f 6/5/5 4/3/3 145/3/32 146/5/31
f 161/221/164 162/222/164 163/223/164 164/224/164 165/225/164 166/226/164 167/227/164 168/228/164 169/229/164 170/230/164 171/231/164 172/232/164 173/233/164 174/234/164 175/235/164 176/236/164
f 13/14/165 15/16/166 168/16/167 167/14/165
f 25/26/168 27/28/169 187/28/169 186/26/168
f 1/1/170 3/4/171 178/4/171 177/1/170
f 19/20/172 21/22/173 171/22/173 170/20/174
f 29/30/175 31/32/176 176/32/177 175/30/175
f 5/6/38 7/8/178 164/8/179 163/6/38
f 15/16/180 17/18/181 183/18/181 182/16/180
f 172/24/182 23/24/183 185/24/184 197/24/184
f 164/8/179 7/8/178 179/8/185 191/8/185
f 11/12/186 13/14/165 167/14/165 166/12/187
f 21/22/173 23/24/183 172/24/182 171/22/173
f 9/10/188 11/12/189 181/12/189 180/10/188
f 174/234/190 173/233/191 198/233/191 199/234/190
f 166/226/192 165/225/193 192/225/193 193/226/192
f 27/28/194 29/30/175 175/30/175 174/28/195
f 185/24/196 186/26/197 198/26/197 197/24/196
f 180/10/198 181/12/199 193/12/199 192/10/198
f 182/16/200 183/18/201 195/18/201 194/16/200
f 177/1/202 178/4/203 190/4/203 189/1/202
f 186/26/197 187/28/204 199/28/204 198/26/197
f 188/32/205 177/34/202 189/34/202 200/32/205
f 179/8/206 180/10/198 192/10/198 191/8/206
f 183/18/201 184/20/207 196/20/207 195/18/201
f 169/229/208 168/228/209 194/228/209 195/229/208
f 11/12/186 166/12/187 193/12/210 181/12/210
f 162/222/211 161/221/212 189/221/212 190/222/211
f 161/221/212 176/236/177 200/236/213 189/221/212
f 170/230/214 169/229/208 195/229/208 196/230/214
f 31/32/215 1/34/170 177/34/170 188/32/215
f 27/28/194 174/28/195 199/28/216 187/28/216
f 7/8/217 9/10/188 180/10/188 179/8/217
f 3/4/37 162/4/39 190/4/218 178/4/218
f 17/18/181 19/20/219 184/20/219 183/18/181
f 19/20/172 170/20/174 196/20/220 184/20/220
f 165/225/193 164/224/221 191/224/221 192/225/193
f 168/16/167 15/16/166 182/16/222 194/16/222
f 173/233/191 172/232/223 197/232/223 198/233/191
f 176/32/177 31/32/176 188/32/224 200/32/213
f 23/24/225 25/26/168 186/26/168 185/24/225
